<?xml version="1.0" standalone="no"?>
<!DOCTYPE svg PUBLIC "-//W3C//DTD SVG 1.1//EN" "http://www.w3.org/Graphics/SVG/1.1/DTD/svg11.dtd" >
<svg xmlns="http://www.w3.org/2000/svg">
<metadata>Generated by IcoMoon</metadata>
<defs>
<font id="viaggia" horiz-adv-x="1024">
<font-face units-per-em="1024" ascent="960" descent="-64" />
<missing-glyph horiz-adv-x="1024" />
<glyph unicode="&#x20;" horiz-adv-x="512" d="" />
<glyph unicode="&#xe900;" glyph-name="monitoring" d="M512.006 722.279c-175.553 0-312.193-104.58-480.013-274.217 144.542-145.039 265.706-274.342 480.013-274.342 214.138 0 371.629 163.711 480.002 271.327-110.958 125.95-268.381 277.231-480.002 277.231zM512.006 252.313c-105.946 0-191.956 87.895-191.956 195.749 0 107.933 86.010 195.579 191.956 195.579 105.856 0 191.944-87.884 191.944-195.579 0-108.204-86.089-195.749-191.944-195.749zM512.006 516.619c0 16.866 6.243 32.218 16.312 44.297-5.385 0.768-10.77 1.242-16.312 1.242-61.727 0-112.031-51.172-112.031-114.096 0-63.014 50.314-114.254 112.031-114.254 61.637 0 112.031 51.24 112.031 114.254 0 4.888-0.305 9.844-0.79 14.766-11.865-9.257-26.393-14.766-42.423-14.766-38.19 0-68.817 30.581-68.817 68.557z" />
<glyph unicode="&#xe901;" glyph-name="bike" d="M993.080 402.342c-25.581 80.173-94.894 134.044-172.471 134.044l-53.182-1.885-16.008 40.143c-35.176 88.109-51.838 127.485-57.438 135.85-6.943 10.724-8.963 10.724-60.948 10.724-46.341 0-54.198-0.553-59.876-8.151-7.97-10.408-7.247-18.627 2.484-28.38 7.733-7.699 15.059-8.376 49.061-8.376 28.99 0 36.011-1.592 37.061-1.998 2.382-3.104 11.616-24.948 15.229-35.244-17.407-1.016-73.095-1.953-149.453-1.953h-153.19l-5.114 10.115c-1.693 3.319-3.082 6.175-4.12 8.41 5.294 0.926 14.585 2.292 28.583 3.985 42.028 5.001 49.953 11.74 52.245 18.277 1.050 2.992 1.23 7.654-3.827 12.813-5.802 6.073-16.143 7.168-73.784 7.834-8.286 0.113-15.793 0.169-22.533 0.169-45.189 0-47.594-2.472-49.852-4.798-4.425-4.403-4.753-15.454-4.256-21.246 0.722-9.381 1.716-22.216 15.816-22.216 0.937 0 1.953 0.056 3.127 0.203l12.282 1.603 17.69-33.291-61.637-94.499c-51.805 14.901-91.79 15.025-137.318 0.294-24.158-10.115-57.652-34.002-73.14-52.154-20.196-23.549-36.271-59.752-40.979-92.241-0.519-3.658-0.96-7.394-1.185-11.368l0.011-24.519c5.249-71.47 55.62-136.9 122.484-159.128 23.029-7.676 29.983-10.002 47.063-10.002 4.933 0 10.815 0.181 18.48 0.429 24.508 0.881 37.061 3.387 58.386 11.661 31.756 12.44 46.668 25.118 78.266 59.492 29.34 32.162 35.492 67.79 37.502 84.565 8.072 0.598 28.109 1.242 53.306 1.242h48.057l0.384-21.426c0.226-9.799-0.147-21.392-0.406-29.057-0.056-1.84-0.113-3.454-0.135-4.832-1.919 0.056-4.437 0.079-7.53-0.135-8.467-0.564-13.829-1.185-16.899-5.024-2.405-3.003-2.258-6.525-1.761-9.776 1.468-11.086 9.979-12.677 19.281-13.411 7.778-0.643 26.089 2.258 30.819 3.409l4.267 1.027 0.914 83.854 21.438 26.755c13.016 16.414 24.79 31.281 26.122 33.076 1.422 1.863 8.038 10.216 14.642 18.536 6.548 8.331 37.377 47.402 68.523 86.71 26.292 33.325 46.555 58.070 54.446 67.044 0.35-0.587 0.7-1.264 1.050-2.009 11.752-24.768 18.141-41.261 19.564-50.529 0.779-4.583 0.655-5.881 0.553-6.175-0.158-0.192-0.881-0.768-4.075-1.987-15.635-5.983-52.854-46.657-63.534-66.977-13.976-26.856-22.995-60.452-22.995-85.603 0-37.919 24.689-98.45 50.8-124.55 36.711-36.666 83.492-56.862 131.718-56.862 40.945 0 80.512 14.292 114.672 41.532 28.346 25.163 49.49 56.557 59.56 88.459 7.643 25.389 8.568 76.448 1.761 97.547zM816.793 333.367c4.188 0 8.286 1.885 12.542 5.78l0.79 0.892c11.932 16.741 1.321 39.646-9.099 62.123-5.464 10.047-28.843 73.547-33.031 87.68 4.516 2.179 14.619 1.874 23.3 1.118 2.924-0.248 5.69-0.485 8.049-0.564 31.485-1.377 39.274-2.822 55.507-10.352 23.707-11.12 55.293-42.807 66.288-66.503 1.095-2.348 2.156-4.493 3.172-6.559 5.983-12.113 10.318-20.862 10.758-53.148 4.38-37.084-19.53-68.997-43.27-95.075-25.705-24.858-60.7-39.105-96.023-39.105-11.289 0-22.363 1.468-32.93 4.357-66.525 18.401-110.721 83.199-100.617 147.511 5.723 36.373 15.274 56.41 37.84 79.406 6.13 6.288 18.898 19.36 23.661 19.36 2.032 0 5.114-5.373 9.133-15.917 2.303-6.243 7.586-19.383 11.786-28.99 4.019-9.268 13.197-31.496 20.478-49.423 10.894-26.969 19.564-42.593 31.665-42.593v0zM248.445 380.702l48.282 76.821c20.105-18.446 38.292-37.502 43.293-75.477l-91.575-1.343zM223.655 425.992c-38.8-58.521-48.44-75.556-42.356-83.978 6.457-8.862 16.245-9.833 35.549-9.833 5.351 0 11.65 0.090 19.089 0.203 10.702 0.158 23.786 0.361 39.895 0.361h66.13c-12.136-104.173-132.339-105.393-137.555-105.393-1.31 0-2.563 0.023-3.748 0.056-63.421 2.145-127.259 49.761-126.593 136.64 0.44 68.049 59.662 121.355 134.823 121.355 16.064 0 32.252-2.45 48.215-7.281-9.2-15.545-21.494-34.115-33.449-52.132zM360.182 568.232c3.24-4.538 8.218-12.316 14.122-22.837 8.986-16.245 34.375-61.287 56.309-99.985 17.238-30.457 29.193-52.956 34.476-63.692l-77.848 0.903c-11.39 49.976-41.814 88.775-68.23 117.562l41.17 68.049zM540.262 440.013c2.484 2.698 3.691 6.141 3.488 9.923-0.598 13.705-19.044 13.705-25.976 13.705-5.035 0-10.453-0.327-15.567-0.632l-11.786-0.621 1.151-44.185-88.685 173.905h127.564c65.035 0 113.78-0.158 128.828-1.987-9.054-13.739-39.59-53.938-71.865-93.573-0.858-1.027-2.63-3.341-5.024-6.48-4.312-5.644-10.724-14.043-17.34-22.115l-47.007-57.291-0.034 22.318c7.609 0.373 17.114 1.456 22.25 7.033z" />
<glyph unicode="&#xe902;" glyph-name="urban-bus" d="M972.015 688.018h-40.042c0 33.178 0 61.468 0 80.049 0 103.146-19.959 159.929-119.967 159.929h-560.006c-119.989 0-160.042-34.25-160.042-140.004 0-21.517 0-57.494 0-99.963h-39.951c-11.097 0-19.993-8.986-19.993-19.993v-160.042c0-11.029 8.896-20.015 19.993-20.015h39.951c0-58.612 0-109.682 0-136.889 0-115.417 0-223.101 0-223.101 0-29.87 11.052-49.050 29.238-61.186l-9.178 1.185v-59.966c0-22.058 17.87-40.019 39.985-40.019h80.004c22.104 0 39.985 17.961 39.985 40.019v40.019h480.036v-40.019c0-22.058 17.893-40.019 39.951-40.019h80.004c22.092 0 40.042 17.961 40.042 40.019v59.966l-9.223-1.185c18.13 12.136 29.182 31.304 29.182 61.186 0 0 0 88.561 0 223.101 0 28.459 0 79.541 0 136.889h40.042c11.052 0 19.981 8.997 19.981 20.015v160.031c-0.011 11.007-8.941 19.993-19.993 19.993zM292.042 848.015c0 11.040 8.896 20.015 19.959 20.015h420.002c11.052 0 20.026-8.986 20.026-20.015v-40.030c0-11.052-8.986-19.993-20.026-19.993h-420.013c-11.052 0-19.959 8.941-19.959 19.993v40.030zM241.965 127.989c-38.653 0-69.957 31.372-69.957 70.047 0 38.653 31.304 70.025 69.957 70.025 38.698 0 70.025-31.372 70.025-70.025 0-38.676-31.327-70.047-70.025-70.047zM782.001 127.989c-38.687 0-70.013 31.372-70.013 70.047 0 38.653 31.327 70.025 70.013 70.025 38.698 0 69.968-31.372 69.968-70.025 0-38.676-31.27-70.047-69.968-70.047zM851.969 427.979c0-39.985-39.037-58.408-59.989-58.408l-559.983-1.558c-39.985 0-59.989 19.993-59.989 59.966 0 59.989 0 177.212 0 240.046 0 39.94 20.004 59.966 59.989 59.966 179.967 0 314.281 0 559.972 0 40.042 0 59.989-20.026 59.989-59.966 0.011-40.019 0.011-219.545 0.011-240.046z" />
<glyph unicode="&#xe903;" glyph-name="train" d="M501.789 897.358c0-16.921-13.717-30.638-30.638-30.638s-30.638 13.717-30.638 30.638c0 16.921 13.717 30.638 30.638 30.638s30.638-13.717 30.638-30.638zM583.498 897.358c0-16.921-13.717-30.638-30.638-30.638s-30.638 13.717-30.638 30.638c0 16.921 13.717 30.638 30.638 30.638s30.638-13.717 30.638-30.638zM694.422 188.43c54.062 16.787 93.314 67.214 93.314 126.796v408.521c0 73.321-59.436 132.757-132.757 132.757h-285.969c-73.321 0-132.757-59.436-132.757-132.757v-408.521c0-59.583 39.251-110.010 93.325-126.796l-134.168-220.426h91.925l91.914 153.178h265.525l91.925-153.178h91.914l-134.191 220.426zM654.99 243.734c-28.211 0-51.071 22.871-51.071 51.071s22.86 51.059 51.071 51.059c28.2 0 51.059-22.86 51.059-51.059 0-28.188-22.871-51.071-51.059-51.071zM430.308 815.661c0 11.278 9.144 20.433 20.41 20.433h122.552c11.289 0 20.422-9.155 20.422-20.433v-40.854c0-11.289-9.133-20.433-20.422-20.433h-122.552c-11.278 0-20.41 9.144-20.41 20.433v40.854zM307.745 672.676c0 33.844 27.432 61.276 61.265 61.276h285.969c33.844 0 61.265-27.432 61.265-61.276v-81.709c0-33.833-27.421-61.276-61.265-61.276h-285.969c-33.833 0-61.265 27.443-61.265 61.276v81.709zM369.010 345.864c28.222 0 51.071-22.86 51.071-51.059s-22.849-51.071-51.071-51.071c-28.211 0-51.048 22.871-51.048 51.071s22.849 51.059 51.048 51.059z" />
<glyph unicode="&#xe904;" glyph-name="extraurban-bus" d="M508.235 927.996c1.242 0 2.563-0.045 3.816-0.056 1.253 0.011 2.585 0.056 3.816 0.056h-7.631zM865.606 786.299c-10.566 52.854-44.455 74.044-95.233 95.154-49.897 20.85-169.863 45.788-258.323 46.487-88.595-0.7-208.426-25.637-258.469-46.487-50.777-21.11-84.632-42.299-95.233-95.154l-38.066-293.126v-403.881h65.656v-63.319c0-77.283 112.934-77.283 112.934 0v63.319h426.21v-63.319c0-77.283 113.058-77.283 113.058 0v63.319h65.577v403.881l-38.111 293.126zM350.891 853.93h322.285c31.677 0 31.677-47.594 0-47.594h-322.285c-31.744 0.011-31.744 47.594 0 47.594zM242.484 215.896c-29.994 0-54.232 24.327-54.232 54.22 0 29.994 24.226 54.22 54.232 54.22 29.87 0 54.119-24.226 54.119-54.22 0-29.893-24.26-54.22-54.119-54.22zM508.235 462.354h-287.606c-28.087 0-34.092 20.128-31.248 40.595l29.577 212.558c4.098 25.806 12.813 42.807 46.352 42.807h493.311c33.584 0 42.378-17.001 46.363-42.807l29.656-212.558c2.754-20.455-3.138-40.595-31.327-40.595h-295.079zM781.628 215.896c-30.006 0-54.232 24.327-54.232 54.22 0 29.994 24.226 54.22 54.232 54.22 29.87 0 54.119-24.226 54.119-54.22 0-29.893-24.26-54.22-54.119-54.22z" />
<glyph unicode="&#xe905;" glyph-name="real-time-info" d="M538.851 714.705h-80.557v-320.050l255.23-151.97 40.256 66.649-214.928 125.351zM511.994 927.996c-268.663 0-483.614-216.001-483.614-480.013 0-263.978 214.951-479.99 483.614-479.99 265.988 0 483.614 216.012 483.614 479.99 0 264.012-217.615 480.013-483.614 480.013zM511.994 74.672c-206.857 0-376.122 168.012-376.122 373.311 0 205.322 169.265 373.311 376.122 373.311 206.891 0 376.122-167.989 376.122-373.311 0.011-208.020-169.22-373.311-376.122-373.311z" />
<glyph unicode="&#xe906;" glyph-name="home" d="M416.017 39.993v288.001h191.989v-288.001h240.001v384.024h144.001l-480.013 431.99-479.99-431.99h143.989v-384.024h240.023z" />
<glyph unicode="&#xe907;" glyph-name="search" d="M715.747 324.585h-43.733l-16.425 13.739c51.974 63.037 84.802 142.635 84.802 233.16 0 197.465-158.631 356.502-355.565 356.502-194.225 0-352.822-159.037-352.822-356.502 0-197.555 158.597-356.637 355.565-356.637 87.511 0 169.57 32.896 232.449 85.061l16.403-13.716v-43.835l273.484-274.353 82.104 82.352-276.261 274.229zM387.569 324.585c-136.753 0-246.187 109.716-246.187 246.898 0 137.137 109.423 246.831 246.187 246.831 136.719 0 246.131-109.694 246.131-246.831-0.011-137.182-109.412-246.898-246.131-246.898z" />
<glyph unicode="&#xe908;" glyph-name="folder" d="M420.566 790.848h-297.145c-50.281 0-91.417-41.148-91.417-91.462v-502.794c0-50.337 41.137-91.44 91.417-91.44h777.147c50.269 0 91.44 41.103 91.44 91.44v400.009c0 50.247-41.159 91.417-91.44 91.417h-388.562l-91.44 102.83z" />
<glyph unicode="&#xe909;" glyph-name="back" d="M991.996 508.006h-730.309l335.155 335.143-84.847 84.847-479.99-479.99 479.99-480.002 84.847 84.813-335.155 335.188h730.309z" />
<glyph unicode="&#xe90a;" glyph-name="nav" d="M31.993 128.001h960.004v106.634h-960.004v-106.634zM31.993 394.643h960.004v106.713h-960.004v-106.713zM31.993 661.365h960.004v106.634h-960.004v-106.634z" />
<glyph unicode="&#xe90b;" glyph-name="map" d="M976.993 703.98l-224.411 150.684c-9.855 6.66-22.295 6.66-32.365 0l-208.121-139.745-208.11 139.745c-9.855 6.66-22.499 6.66-32.354 0l-224.411-150.684c-9.426-6.198-15.217-17.769-15.217-30.006v-602.26c0-12.655 5.994-24.226 15.85-30.649 9.866-6.22 22.081-6.017 31.733 0.418l208.121 139.745 208.121-139.745c10.081-6.638 22.295-6.638 32.365 0l208.324 139.745 208.121-139.745c4.933-3.217 10.499-5.136 16.075-5.136 5.362 0 10.713 1.501 15.432 4.493 9.855 6.22 15.861 17.994 15.861 30.649v602.294c0.203 12.429-5.588 24-15.014 30.198zM252.769 239.749l-152.185-105.878v518.034l152.174 105.878v-518.034zM321.348 240.607v262.342c2.145-1.501 4.29-2.777 6.22-4.278l19.936 27.85c-8.151 5.802-17.148 11.379-26.145 16.098v216.249l156.463-105.020v-232.991c-11.797 4.075-23.368 9.437-35.153 16.933l-18.209-29.148c14.574-9.212 29.148-16.075 44.365-21.009l9.008 27.454v-279.286l-156.486 104.806zM546.391 135.79v243.071c0.429 0 0.858 0 1.072 0 6.22 0.418 12.44 1.061 18.22 1.919l-5.362 33.867c-4.504-0.643-9.212-1.276-14.145-1.501v240.701l156.452 105.020v-255.478l-11.357 10.273c-6.435-7.078-12.44-14.134-18.435-20.794-3.861-4.493-7.722-8.771-11.368-13.072l25.716-22.713c3.861 4.278 7.722 8.771 11.571 13.298 1.287 1.501 2.574 3.003 4.075 4.493v-234.040l-156.441-105.043zM923.62 135.79l-152.174 103.733v294.074c7.722 3.443 15.861 6.017 23.786 7.722l-6.852 33.641c-5.791-1.061-11.368-2.777-17.159-4.493v187.53l152.174-103.959v-518.248h0.226zM175.384 448.085c4.075 12.632 7.507 23.571 15.229 34.928l-28.301 19.293c-10.499-15.432-15.217-29.791-19.71-43.947l-0.429-1.693 32.58-10.521 0.632 1.942zM239.47 522.873c4.719 2.585-3.003 2.359 2.145 3.861l-10.51 32.591c-7.067-2.359-13.93-5.136-20.568-8.794-8.151-4.493-16.504-10.499-24.226-17.791l23.357-25.073c5.577 5.351 24.011 12.215 29.803 15.206zM598.478 426.433l15.003-30.864c14.145 6.852 27.443 15.85 40.945 27.872l-22.724 25.705c-11.142-9.855-21.866-17.351-33.223-22.713zM387.354 487.088c-2.134 2.563-4.29 5.136-6.423 7.722l-26.145-22.295c2.134-2.585 4.29-4.945 6.22-7.496 7.722-9.212 15.646-18.649 24.858-27.454l23.582 24.869c-7.722 7.507-14.574 15.861-22.092 24.655zM837.237 504.45l22.081 22.284 22.081-22.284 24.429 24.429-22.284 22.092 22.284 22.070-24.429 24.429-22.081-22.295-22.081 22.295-24.429-24.429 22.295-22.070-22.295-22.092z" />
<glyph unicode="&#xe90c;" glyph-name="info" d="M464.005 208.005h96v287.99h-96v-287.99zM511.994 927.996c-265.198 0-480.002-214.77-480.002-480.002 0-265.164 214.793-480.002 480.002-480.002 265.186 0 480.002 214.827 480.002 480.002 0 265.231-214.804 480.002-480.002 480.002zM511.994 64.004c-211.688 0-384.001 172.313-384.001 384.001s172.313 384.001 384.001 384.001 384.001-172.324 384.001-384.001-172.313-384.001-384.001-384.001zM464.005 591.995h96v96h-96v-96z" />
<glyph unicode="&#xe90d;" glyph-name="user" d="M511.994 928.007c117.833 0 213.37-95.549 213.37-213.438 0-117.799-95.538-213.325-213.37-213.325-117.844 0-213.37 95.538-213.37 213.325 0 117.889 95.526 213.438 213.37 213.438zM972.873 181.363c-105.585 104.783-264.746 170.642-461.059 170.642s-355.125-66.017-460.687-170.642c-6.943-6.807-19.123-21.776-19.123-40.708 0-16.73 0-172.663 0-172.663h959.992c0 0 0 155.718 0 172.663 0 18.943-12.373 33.912-19.123 40.708z" />
<glyph unicode="&#xe90e;" glyph-name="notification" d="M511.994-32.007c53.035 0 96 42.988 96 96h-191.989c0-53.012 42.954-96 95.989-96zM823.996 255.994v264.001c0 147.613-102.469 270.684-240.001 303.399v32.613c0 39.838-32.162 72-72 72s-72-32.162-72-72v-32.613c-137.509-32.715-240.001-155.786-240.001-303.399v-264.001l-96-96v-48h815.992v48l-95.989 96z" />
<glyph unicode="&#xe90f;" glyph-name="bookmark-outline" d="M778.682 928.007h-533.364c-58.668 0-106.126-48.057-106.126-106.725l-0.508-853.279 373.322 160.008 373.322-160.008v853.267c-0.011 58.679-48.023 106.736-106.646 106.736zM778.682 128.001l-266.688 116.253-266.676-116.253v693.271h533.364v-693.271z" />
<glyph unicode="&#xe910;" glyph-name="bookmark" d="M778.648 928.007h-533.342c-58.646 0-106.126-47.887-106.126-106.646l-0.519-853.358 373.311 160.008 373.356-160.008v853.347c0.011 58.758-48.034 106.657-106.68 106.657z" />
<glyph unicode="&#xe911;" glyph-name="parking-lot" d="M335.64 316.095v-348.092h-192.554v959.992h382.398c110.36 0 197.182-28.121 260.456-84.441 63.285-56.218 94.962-130.285 94.962-222.142 0-91.903-31.677-165.754-94.962-221.532-63.274-55.846-150.097-83.786-260.456-83.786h-189.845zM335.64 464.499h189.845c53.645 0 94.33 14.596 121.999 43.846 27.748 29.227 41.532 66.525 41.532 111.748 0 46.149-13.693 84.26-41.159 114.401-27.466 30.096-68.241 45.167-122.36 45.167h-189.856v-315.162z" />
<glyph unicode="&#xe912;" glyph-name="euro" d="M461.228 411.057v110.789h302.53l16.504 110.744h-319.034v4.312c0 82.86 34.555 134.044 182.902 134.044 60.587 0 128.907-5.848 215.041-20.275l22.058 149.905c-87.714 20.252-163.124 27.421-244.471 27.421-264.78 0-378.583-95.109-378.583-271.034v-24.373h-115.417v-110.744h115.417v-110.789h-115.417v-110.698h115.417v-61.389c0-175.846 113.758-270.977 378.504-270.977 81.325 0 156.542 7.27 244.291 27.375l-22.194 149.882c-86.134-14.371-154.115-20.162-214.725-20.162-148.313 0-182.812 43.27-182.812 145.581v29.69h269.533l16.482 110.698h-286.026z" />
<glyph unicode="&#xe913;" glyph-name="news" d="M901.99 928.007h-659.98c-49.727 0-90.006-40.29-90.006-89.983v-60.045h-29.994c-49.727 0-90.006-40.245-90.006-89.983v-599.991c0-66.299 53.712-120 120-120h719.991c66.254 0 120 53.701 120 120v750.020c0 49.682-40.301 89.983-90.006 89.983zM932.007 87.993c0-33.065-26.958-59.989-60-59.989h-720.003c-33.088 0-60 26.935-60 59.989v600.002c0 16.549 13.434 30.028 30.006 30.028h29.994v-600.002c0-16.617 13.4-30.017 29.994-30.017s29.994 13.411 29.994 30.017v720.003c0 16.504 13.434 29.972 30.006 29.972h659.991c16.527 0 30.006-13.468 30.006-29.972v-750.031zM616.913 537.82h240.001c8.32 0 15.003 6.728 15.003 15.003 0 8.252-6.683 14.98-15.003 14.98h-240.001c-8.23 0-14.992-6.728-14.992-14.98 0-8.275 6.762-15.003 14.992-15.003zM616.913 627.803h240.001c8.32 0 15.003 6.762 15.003 15.003 0 8.297-6.683 15.014-15.003 15.014h-240.001c-8.23 0-14.992-6.717-14.992-15.014 0-8.252 6.762-15.003 14.992-15.003zM616.913 717.82h240.001c8.32 0 15.003 6.717 15.003 14.992 0 8.263-6.683 14.98-15.003 14.98h-240.001c-8.23 0-14.992-6.717-14.992-14.98 0-8.275 6.762-14.992 14.992-14.992zM527.009 117.841h-240.001c-8.286 0-15.003-6.717-15.003-14.992 0-8.32 6.717-14.98 15.003-14.98h240.001c8.23 0 14.992 6.66 14.992 14.98 0 8.275-6.762 14.992-14.992 14.992zM527.009 207.869h-240.001c-8.286 0-15.003-6.785-15.003-15.003 0-8.309 6.717-15.014 15.003-15.014h240.001c8.23 0 14.992 6.706 14.992 15.014 0 8.218-6.762 15.003-14.992 15.003zM527.009 297.841h-240.001c-8.286 0-15.003-6.739-15.003-15.003 0-8.309 6.717-14.98 15.003-14.98h240.001c8.23 0 14.992 6.672 14.992 14.98 0 8.275-6.762 15.003-14.992 15.003zM857.004 117.841h-240.012c-8.309 0-14.992-6.717-14.992-14.992 0-8.32 6.683-14.98 14.992-14.98h240.012c8.23 0 14.992 6.66 14.992 14.98 0 8.275-6.751 14.992-14.992 14.992zM857.004 207.869h-240.012c-8.309 0-14.992-6.785-14.992-15.003 0-8.309 6.683-15.014 14.992-15.014h240.012c8.23 0 14.992 6.706 14.992 15.014 0 8.218-6.751 15.003-14.992 15.003zM857.004 297.841h-240.012c-8.309 0-14.992-6.739-14.992-15.003 0-8.309 6.683-14.98 14.992-14.98h240.012c8.23 0 14.992 6.672 14.992 14.98 0 8.275-6.751 15.003-14.992 15.003zM857.004 477.842h-569.996c-8.286 0-15.003-6.717-15.003-14.992 0-8.263 6.717-14.98 15.003-14.98h569.996c8.23 0 14.992 6.717 14.992 14.98 0 8.275-6.751 14.992-14.992 14.992zM857.004 387.859h-569.996c-8.286 0-15.003-6.762-15.003-14.992 0-8.32 6.717-15.025 15.003-15.025h569.996c8.23 0 14.992 6.706 14.992 15.025 0 8.23-6.751 14.992-14.992 14.992zM301.999 537.978h210.006c16.561 0 29.994 13.389 29.994 30.017v209.848c0 16.583-13.434 30.017-29.994 30.017h-210.006c-16.606 0-29.994-13.434-29.994-30.017v-209.848c0-16.583 13.389-30.017 29.994-30.017zM331.994 747.995h150.006v-149.984h-150.006v149.984z" />
<glyph unicode="&#xe914;" glyph-name="navigator" d="M991.996 928.007l-959.992-401.736 0.034-52.482 364.551-141.201 141.19-364.585h52.482l401.736 960.004z" />
<glyph unicode="&#xe915;" glyph-name="advice" d="M737.986 907.292c-223.813 0-116.253-224.084-471.14-172.606-2.506 0.406-4.753 0.226-6.83-0.339-4.267 0.237-8.455 0.339-12.79 0.339-118.86 0-215.211-82.149-215.211-183.523 0-101.442 96.35-183.647 215.211-183.647 30.277 0 103.011-1.569 111.94 0 159.263 28.188 241.118-181.536 378.831-181.536 42.83 0 77.509 34.679 77.509 77.475v566.361c-0.011 42.796-34.691 77.475-77.521 77.475zM341.928 310.745h-156.001c-62.416 0-50.608-50.043-50.608-111.827v-98.416c0-61.75 50.608-111.793 113.069-111.793h23.549c62.45 0 113.069 50.055 113.069 111.793v98.416c-0.011 61.795 19.417 111.827-43.078 111.827zM884.391 654.287v-215.29c59.436 0 107.605 48.181 107.605 107.639 0 59.47-48.181 107.65-107.605 107.65z" />
<glyph unicode="&#xe916;" glyph-name="delete" d="M192.035 74.695c0-58.679 48-106.691 106.601-106.691h426.696c58.634 0 106.634 48.011 106.634 106.691v639.931h-639.931v-639.931zM885.305 874.656h-186.65l-53.351 53.351h-266.62l-53.34-53.351h-186.65v-106.691h746.622v106.691z" />
<glyph unicode="&#xe917;" glyph-name="edit" d="M31.993 167.986v-199.982h200.027l590.226 590.181-200.061 200.072-590.192-590.271zM976.429 712.413c20.771 20.817 20.771 54.661 0 75.477l-124.55 124.505c-20.817 20.817-54.706 20.817-75.477 0l-97.603-97.603 199.982-199.982 97.649 97.603z" />
<glyph unicode="&#xe918;" glyph-name="new" d="M991.996 447.994l-106.476 121.344 14.822 160.776-157.536 35.537-82.476 138.763-148.313-63.726-148.381 63.726-82.476-138.763-157.513-35.526 14.822-160.776-106.465-121.355 106.476-121.333-14.822-160.776 157.513-35.526 82.476-138.763 148.392 63.726 148.313-63.726 82.454 138.751 157.547 35.526-14.822 160.776 106.465 121.344zM555.626 229.815h-87.251v87.285h87.251v-87.285zM555.626 404.397h-87.251v261.788h87.251v-261.788z" />
<glyph unicode="&#xe919;" glyph-name="list" d="M109.829 516.111c-43.067 0-77.837-32.207-77.837-72.237 0-39.906 34.758-72.158 77.837-72.158 43.056 0 77.825 32.241 77.825 72.158 0 40.030-34.758 72.237-77.825 72.237zM109.829 804.891c-43.067 0-77.837-32.207-77.837-72.181 0-39.929 34.758-72.215 77.837-72.215 43.056 0 77.825 32.286 77.825 72.215 0 39.974-34.758 72.181-77.825 72.181zM109.829 219.113c-38.416 0-68.997-28.82-68.997-63.996 0-35.142 31.112-63.996 68.997-63.996 37.863 0 68.986 28.866 68.986 63.996 0.011 35.165-30.615 63.996-68.986 63.996zM265.48 106.992h726.516v96.283h-726.516v-96.283zM265.48 395.772h726.516v96.283h-726.516v-96.283zM265.48 780.835v-96.237h726.516v96.237h-726.516z" />
<glyph unicode="&#xe91a;" glyph-name="clear" d="M138.672 398.527h746.656v98.958h-746.656v-98.958zM32.004 200.644h746.656v98.924h-746.656v-98.924zM245.329 695.356v-98.947h746.667v98.947h-746.667z" />
<glyph unicode="&#xe91b;" glyph-name="more" d="M511.994 687.995c65.983 0 120 53.972 120 120 0 66.017-54.017 120-120 120-65.995 0-120-53.983-120-120 0.011-66.017 54.006-120 120-120zM511.994 567.984c-65.995 0-120-53.972-120-119.989 0-65.972 54.006-120.012 120-120.012 65.983 0 120 54.040 120 120.012 0 66.017-54.017 119.989-120 119.989zM511.994 208.005c-65.995 0-120-53.995-120-120.012 0-65.972 54.006-119.989 120-119.989 65.983 0 120 54.017 120 119.989 0 66.017-54.017 120.012-120 120.012z" />
<glyph unicode="&#xe91c;" glyph-name="foot" d="M283.136 25.758l57.821-57.765 120.452 371.008 115.711-139.745 48.124-202.319 65.024 16.877-40.911 214.375-135.297 173.453 29.272 240.927 62.642-115.643 149.397-53.012 24.045 48.181-134.89 57.855-72.305 163.824-134.879 24.090-192.757-125.295 9.652-197.6 53.001 9.652-4.877 130.138 86.766 53.024-19.247-231.331zM608.559 860.478c0-37.289-30.229-67.519-67.519-67.519s-67.519 30.229-67.519 67.519c0 37.289 30.229 67.519 67.519 67.519s67.519-30.229 67.519-67.519z" />
<glyph unicode="&#xe91d;" glyph-name="car-sharing" d="M939.932 648.868l-47.458 121.050c-8.918 23.063-28.188 42.728-64.572 42.728h-248.738c-36.452 0-55.857-19.665-64.708-42.728l-47.481-121.050c-18.773-2.359-51.974-24.271-51.974-65.599v-154.036h46.025v-49.163c0-60.632 86.687-59.955 86.687 0v49.163h311.572v-49.163c0-59.955 86.619-60.632 86.619 0v49.163h46.104v154.048c-0.011 41.317-33.313 63.229-52.075 65.588zM505.763 533.474c-22.115 0-40.019 18.254-40.019 40.854 0 22.51 17.904 40.832 40.019 40.832 22.058 0 40.053-18.322 40.053-40.832 0-22.6-17.994-40.854-40.053-40.854zM703.555 661.771h-187.485l35.718 93.709c4.459 13.389 11.108 23.041 26.8 23.199h249.912c15.522-0.158 22.183-9.81 26.687-23.199l35.65-93.709h-187.282zM901.155 533.474c-22.058 0-40.030 18.254-40.030 40.854 0 22.51 17.972 40.832 40.030 40.832 22.126 0 40.019-18.322 40.019-40.832 0-22.6-17.893-40.854-40.019-40.854zM340.077 247.651c34.104 0 61.4 27.522 61.4 61.581 0 34.126-27.308 61.648-61.4 61.648s-61.626-27.522-61.626-61.648c0-34.058 27.522-61.581 61.626-61.581zM175.756 247.651c34.104 0 61.4 27.522 61.4 61.581 0 34.126-27.308 61.648-61.4 61.648s-61.615-27.522-61.615-61.648c0-34.058 27.522-61.581 61.615-61.581zM175.756 206.582c-47.842 0-143.752-24.057-143.752-71.876v-51.353h287.527v51.353c0 47.82-95.91 71.876-143.775 71.876zM340.077 206.582c-5.961 0-12.745-0.395-19.947-1.016 23.819-17.283 40.471-40.459 40.471-70.86v-51.353h123.229v51.353c0 47.82-95.91 71.876-143.752 71.876z" />
<glyph unicode="&#xe91e;" glyph-name="bike-sharing" d="M995.676 621.177c-19.168 60.045-71.176 100.403-129.393 100.403l-36.994-1.321-10.961 27.466c-31.936 80.027-39.251 95.47-42.39 100.234-6.096 9.257-9.2 9.257-47.233 9.257-33.833 0-41.17-0.248-46.296-7.214-6.83-8.85-6.209-16.482 2.055-24.79 6.785-6.728 13.49-6.999 38.1-6.999 17.080 0 23.21-0.756 25.4-1.287 2.009-3.691 6.198-13.513 8.817-20.218-15.714-0.666-53.859-1.208-105.46-1.208h-110.529l-2.913 5.735c-0.452 0.881-0.869 1.705-1.253 2.495 3.985 0.61 9.573 1.377 16.877 2.258 26.924 3.217 37.976 7.383 40.787 15.387 0.869 2.461 1.547 7.349-3.466 12.463-5.080 5.351-11.91 6.164-56.218 6.728-5.904 0.068-11.278 0.113-16.109 0.113-33.37 0-36.553-1.659-39.071-4.357-4.922-4.786-4.278-15.838-4.098-17.983 0.531-6.672 1.524-19.078 14.619-19.078 0.802 0 1.648 0.056 2.653 0.169l6.977 0.881 11.165-20.975-43.033-65.983c-37.637 10.499-66.796 10.476-100.617-0.485-17.972-7.575-43.033-25.456-54.728-39.059-15.375-17.983-27.161-44.489-30.762-69.234-0.384-2.743-0.7-5.543-0.892-8.738l0.023-18.175c3.951-53.633 41.724-102.729 91.869-119.368 16.798-5.599 22.454-7.485 35.086-7.485 3.737 0 8.196 0.147 14.043 0.35 18.356 0.621 27.782 2.495 43.823 8.715 23.819 9.302 34.962 18.773 58.488 44.422 20.783 22.77 26.168 47.797 28.008 61.219 6.627 0.361 19.518 0.745 36.418 0.745h32.286l0.248-12.824c0.147-6.818-0.124-14.856-0.294-20.376-0.011-0.474-0.023-0.926-0.045-1.366-0.847-0.011-1.784-0.045-2.822-0.124-5.802-0.406-11.278-0.802-14.506-4.843-2.822-3.522-2.179-7.755-1.93-9.404 1.456-11.187 11.142-11.966 16.899-12.429 5.972-0.474 19.936 1.682 23.515 2.551l5.407 1.298 0.677 62.8 15.116 18.852c9.539 12 18.164 22.928 19.236 24.327 0.926 1.219 4.809 6.13 9.054 11.481l1.614 2.043c4.798 6.096 27.409 34.724 50.235 63.613 17.272 21.821 30.13 37.614 36.903 45.607 7.586-16.143 11.91-27.409 12.869-33.607 0.169-1.016 0.271-1.738 0.327-2.258-0.282-0.124-0.621-0.248-1.050-0.418-12.339-4.786-40.064-35.142-48.17-50.597-10.442-19.993-17.193-45.178-17.193-64.155 0-28.493 18.536-73.931 38.145-93.494 27.488-27.443 62.551-42.559 98.732-42.559 30.717 0 60.384 10.702 86.089 31.214 21.223 18.886 37.050 42.39 44.58 66.277 5.723 19.022 6.389 57.404 1.287 73.31zM482.598 656.104c12.666-11.865 23.808-24.711 27.692-47.797l-58.25-0.824 30.559 48.621zM414.301 494.911l-2.653 0.045c-45.054 1.524-90.412 35.402-89.927 97.208 0.305 48.226 42.423 86.010 95.876 86.010 10.239 0 20.557-1.389 30.773-4.143-6.435-10.589-14.54-22.815-22.42-34.702-29.791-44.941-36.734-57.201-31.033-65.058 5.723-7.891 14.563-8.467 28.448-8.467 3.94 0 8.568 0.079 14.055 0.158 7.846 0.124 17.441 0.26 29.249 0.26h45.088c-10.792-70.488-93.81-71.312-97.457-71.312zM550.805 608.736c-8.704 35.368-29.87 62.913-48.711 83.616l26.63 44.015c2.088-3.206 4.685-7.462 7.564-12.587 6.604-11.989 25.208-45.020 41.317-73.479 10.431-18.39 18.423-33.223 22.995-42.13l-49.795 0.564zM647.314 634.723l-0.011 5.204c1.569 0.135 3.195 0.327 4.798 0.643l-4.786-5.848zM692.943 691.303c-0.666-0.779-2.055-2.585-3.917-5.024-3.15-4.12-7.755-10.149-12.531-15.962l-10.532-12.858c-2.213 10.747-16.82 10.747-21.821 10.747-3.669 0-7.586-0.237-11.323-0.44l-11.831-0.576 0.587-22.092-56.805 111.364h88.685c40.877 0 74.382-0.090 89.069-1.005-8.512-12.023-27.624-37.14-49.581-64.155zM931.093 517.139c-18.299-17.701-43.191-27.861-68.32-27.861-8.004 0-15.861 1.050-23.345 3.093-47.379 13.061-78.864 59.097-71.684 104.794 4.098 25.998 10.894 40.29 26.946 56.681 7.372 7.53 12.294 11.898 14.664 13.005 0.779-1.027 2.156-3.522 4.437-9.528 1.818-4.843 5.701-14.495 8.704-21.392 2.958-6.773 9.675-23.052 15.014-36.158 8.647-21.46 15.353-33.099 25.987-33.11 3.849 0 7.518 1.648 11.21 4.99l1.016 1.151c9.754 13.671 1.208 32.105-6.514 48.734-3.229 5.983-18.762 47.379-23.187 60.858 2.766 0.497 8.534 0.26 13.197-0.135 2.201-0.192 4.29-0.35 6.028-0.406 23.786-1.061 28.741-2.337 39.556-7.349 16.843-7.88 39.33-30.423 47.176-47.289 0.813-1.75 1.603-3.364 2.371-4.911 4.357-8.839 7.236-14.687 7.575-37.942 3.093-25.998-14.009-48.745-30.83-67.225zM194.823 231.982c38.608 0 69.528 31.18 69.528 69.788s-30.92 69.788-69.528 69.788c-38.619 0-69.788-31.18-69.788-69.788s31.169-69.788 69.788-69.788zM194.823 185.472c-54.209 0-162.819-27.229-162.819-81.426v-58.104h325.627v58.104c0 54.198-108.621 81.426-162.808 81.426zM380.874 185.472c-6.739 0-14.416-0.463-22.589-1.129 27.003-19.597 45.855-45.844 45.855-80.298v-58.104h139.541v58.104c0 54.198-108.599 81.426-162.808 81.426zM450.414 301.759c0 38.608-30.943 69.788-69.551 69.788s-69.765-31.18-69.765-69.788 31.157-69.788 69.765-69.788c38.619 0.011 69.551 31.18 69.551 69.788z" />
<glyph unicode="&#xe91f;" glyph-name="public-transport" d="M956.030 543.306c-20.625 35.289-45.223 42.999-84.655 53.114-39.387 10.183-79.18 11.684-113.713 11.684s-74.326-1.501-113.724-11.684c-39.409-10.115-60.576-17.825-81.223-53.114-20.636-35.278-32.365-214.748-32.365-224.038s0-232.55 0-232.55h33.867c0 0 0-24.373 0-24.847 0-17.374 10.871-31.473 28.222-31.473 17.362 0 28.222 14.1 28.222 31.473 0 0.474 0 24.847 0 24.847h265.164c0 0-0.068-33.731 0-34.171 3.985-31.485 18.773-26.834 36.169-26.834 17.385 0 14.755 18.785 14.755 36.158 0 0.474 0 24.847 0 24.847h55.248c0 0 0.023 198.277 0.023 208.381-0.023 10.126-15.353 212.93-35.989 248.208zM677.094 560.86h191.91v-33.867h-191.91v33.867zM595.487 179.128c-19.902 0-36.034 16.132-36.034 36.057 0 19.902 16.143 36 36.034 36 19.936 0 36.057-16.109 36.057-36 0-19.925-16.12-36.057-36.057-36.057zM559.667 312.506c0 0 12.937 155.854 26.822 169.717 13.84 13.863 328.472 8.862 342.323-4.978 13.874-13.851 26.755-164.738 26.755-164.738h-395.9zM919.759 179.128c-19.914 0-36.045 16.132-36.045 36.057 0 19.902 16.143 36 36.045 36 19.891 0 36.023-16.109 36.023-36 0-19.925-16.143-36.057-36.023-36.057zM337.559 433.94c28.211 7.981 46.013 38.63 46.013 71.605v243.579c0 39.105-23.131 60.079-59.312 60.079h-53.577v23.424c22.578 3.612 10.149 9.675 10.149 16.595 0 11.097-8.354 20.060-19.406 20.060-11.063 0-21.438-8.963-21.438-20.060 0-7.157 8.117-13.411 8.117-16.956v-23.063h-33.867v23.424c0 3.612 5.611 9.675 5.611 16.595 0 11.097-10.578 20.060-21.641 20.060-11.097 0-18.040-8.963-18.040-20.060 0-7.157 11.503-13.411 11.503-16.956v-23.063h-56.591c-36.169 0-56.297-20.975-56.297-60.079v-243.579c0-33.686 11.289-62.19 56.444-69.472v-0.26l-103.225-123.308h54.322l71.086 90.311h146.981l71.075-90.311h54.322l-92.23 121.434zM361.006 668.341c0-25.185-23.232-51.037-50.235-51.037h-166.228c-27.014 0-54.469 25.851-54.469 51.037v40.832c0 25.163 27.466 43.586 54.469 43.586h166.228c27.014 0 50.235-18.423 50.235-43.586v-40.832zM142.725 477.899c-16.064 0-29.114 13.072-29.114 29.114 0 16.098 13.050 29.114 29.114 29.114s29.080-13.016 29.080-29.114c0-16.041-13.027-29.114-29.080-29.114zM317.341 477.899c-16.053 0-29.091 13.072-29.091 29.114 0 16.098 13.039 29.114 29.091 29.114 16.064 0 29.114-13.016 29.114-29.114 0-16.041-13.050-29.114-29.114-29.114z" />
<glyph unicode="&#xe920;" glyph-name="parking-garage" d="M974.961 714.434l-439.543 190.093c-7.123 3.082-15.217 3.104-22.341 0.034l-463.972-199.079c-14.326-6.152-20.963-22.758-14.811-37.084 4.583-10.691 15.014-17.114 25.964-17.114 3.714 0 7.485 0.734 11.12 2.292l452.784 194.292 428.378-185.273c14.326-6.186 30.931 0.384 37.129 14.721 6.186 14.314-0.395 30.92-14.709 37.118zM538.455 267.994h-55.586v-92.264h55.586c15.691 0 27.601 4.29 35.707 12.835 8.105 8.568 12.158 19.473 12.158 32.726 0 13.501-4.019 24.677-12.068 33.483s-19.959 13.219-35.797 13.219zM867.367 645.572c-22.612 0-40.945-18.333-40.945-40.945v-225.766h-594.064v225.98c0 22.612-18.333 40.945-40.945 40.945s-40.945-18.333-40.945-40.945v-574.546c0-22.465 18.107-40.662 40.516-40.899v-0.214l674.836 0.113c0.531-0.011 1.016-0.158 1.547-0.158 22.612 0 40.945 18.333 40.945 40.945v574.557c0 22.6-18.333 40.933-40.945 40.933zM614.7 156.832c-18.525-16.346-43.947-24.519-76.234-24.519h-55.586v-101.904h-56.365v281.025h111.951c32.297 0 57.709-8.23 76.234-24.7 18.536-16.482 27.793-38.156 27.793-65.046 0-26.901-9.257-48.519-27.793-64.854z" />
<glyph unicode="&#xe921;" glyph-name="localization" d="M512.017 622.565c-96.452 0-174.571-78.108-174.571-174.526s78.119-174.526 174.571-174.526c96.418 0 174.526 78.108 174.526 174.526s-78.108 174.526-174.526 174.526zM902.047 491.682c-19.993 181.965-164.445 326.349-346.432 346.421v89.916h-87.24v-89.916c-181.965-20.060-326.383-164.445-346.455-346.421h-89.927v-87.285h89.916c20.072-181.931 164.49-326.417 346.455-346.489v-89.916h87.251v89.916c181.976 20.072 326.428 164.558 346.432 346.489h89.961v87.285h-89.961zM512.017 142.586c-168.892 0-305.454 136.561-305.454 305.454s136.561 305.42 305.454 305.42c168.847 0 305.42-136.527 305.42-305.42s-136.572-305.454-305.42-305.454z" />
<glyph unicode="&#xe922;" glyph-name="FAQ" d="M511.96 928.019c-264.644 0-480.036-215.301-480.036-480.036 0-264.667 215.391-479.99 480.036-479.99 264.723 0 480.115 215.323 480.115 479.99 0 264.723-215.391 480.036-480.115 480.036zM511.96 55.233c-216.577 0-392.683 176.208-392.683 392.75 0 216.599 176.117 392.795 392.683 392.795 216.588 0 392.762-176.208 392.762-392.795 0-216.554-176.174-392.75-392.762-392.75zM494.61 307.155c-31.891 0.971-58.329-21.042-59.368-55.767-0.96-34.826 24.147-57.63 55.97-58.612 33.381-0.993 59.075 20.467 60.102 55.123 1.197 34.691-23.176 58.284-56.704 59.255zM621.914 668.556c-33.968 25.682-72.362 34.668-120.655 34.668-36.926 0-68.377-7.405-93.11-24.35-36.553-24.982-53.904-67.214-53.904-133.457h94.747c0 17.486-1.693 36.813 8.568 53.17 10.408 16.335 24.802 28.832 49.479 28.832 25.174 0 38.247-7.225 50.36-22.205 10.329-12.869 14.179-28.188 14.179-44.433 0-14.009-6.943-27.059-15.511-38.788-4.73-6.785-10.781-13.050-18.536-18.852 0 0-50.958-30.401-69.189-59.266-13.434-21.415-18.096-48.057-19.349-80.399-0.158-2.393 0.881-7.056 8.783-7.056 8.049 0 68.964 0 76.2 0 7.304 0 8.568 5.283 8.783 7.564 0.373 11.932 1.998 29.667 4.132 36.463 3.996 12.869 11.819 24.181 24.373 33.72l25.4 17.543c23.108 17.927 41.351 32.704 49.479 44.218 13.874 18.898 23.707 42.22 23.707 70.126-0.011 45.234-16.617 78.728-47.932 102.503z" />
<glyph unicode="&#xe923;" glyph-name="star-outline" d="M216.125-10.988l112.967 348.092-297.1 211.418h364.506l115.485 358.466 115.53-358.466h364.483l-297.077-211.406 113.351-348.103-296.276 215.628-295.869-215.628zM511.994 248.419l228.825-166.544-87.59 268.991 228.023 162.277h-279.512l-89.746 278.473-89.712-278.473h-279.534l228.012-162.277-87.297-268.991 228.531 166.544z" />
<glyph unicode="&#xe924;" glyph-name="star" d="M511.994 229.42l296.795-216.012-113.588 348.78 296.795 211.214h-363.986l-116.015 360.001-115.982-360.001h-364.020l296.795-211.214-113.193-348.791 296.4 216.023z" />
<glyph unicode="&#xe925;" glyph-name="car" d="M905.377 572.984l-78.965 201.393c-14.834 38.371-46.894 71.097-107.436 71.097h-413.838c-60.644 0-92.941-32.726-107.673-71.097l-78.999-201.393c-31.236-3.929-86.461-40.391-86.461-109.129v-256.279h76.584v-81.81c0-100.877 144.215-99.737 144.215 0v81.81h518.373v-81.81c0-99.737 144.125-100.877 144.125 0v81.81h76.708v256.268c0 68.749-55.428 105.212-86.631 109.141zM183.003 380.972c-36.79 0-66.57 30.367-66.57 67.97 0 37.456 29.791 67.936 66.57 67.936 36.7 0 66.638-30.48 66.638-67.936 0.011-37.592-29.938-67.97-66.638-67.97zM512.107 594.445h-311.945l59.424 155.91c7.417 22.273 18.491 38.337 44.591 38.585h415.791c25.829-0.248 36.915-16.324 44.41-38.585l59.323-155.91h-311.595zM840.861 380.972c-36.7 0-66.593 30.367-66.593 67.97 0 37.456 29.893 67.936 66.593 67.936 36.813 0 66.582-30.48 66.582-67.936 0-37.592-29.769-67.97-66.582-67.97z" />
<glyph unicode="&#xe926;" glyph-name="one" d="M717.068-31.985h-219.602v758.419h-190.533v167.741l410.135 33.81z" />
<glyph unicode="&#xe927;" glyph-name="two" d="M852.963-31.985h-657.733v142.951l291.185 319.79c38.969 44.162 67.575 83.594 85.829 118.228 18.141 34.724 27.217 64.809 27.217 90.412 0 36.813-8.23 65.972-24.632 87.353-16.482 21.528-42.864 32.218-79.338 32.218-34.262 0-60.745-13.976-79.632-41.893-18.796-28.008-28.233-63.613-28.233-106.951h-215.177l-1.298 3.94c-2.122 87.5 26.664 161.656 86.473 222.582 59.82 60.915 139.067 91.338 237.856 91.338 103.598 0 183.5-25.468 239.888-76.437 56.286-50.834 84.429-120.915 84.429-210.164 0-59.91-15.646-112.866-46.758-158.97-31.202-46.104-88.426-114.254-171.658-204.418l-114.966-137.769 1.287-3.285h365.251v-168.926z" />
<glyph unicode="&#xe928;" glyph-name="three" d="M496.675 538.373c38.89 0 68.738 10.408 89.735 31.394 20.907 20.907 31.406 49.987 31.406 87.093 0 29.069-10.679 53.769-32.139 74.032-21.268 20.275-50.111 30.491-86.45 30.491-27.387 0-50.484-8.038-69.562-24.102-18.988-15.974-28.482-36.971-28.482-63.037h-210.232l-1.276 3.793c-2.551 74.394 26.574 134.653 87.545 180.746 60.892 46.194 134.834 69.201 222.018 69.201 101.329 0 182.292-23.187 243.184-69.472 60.892-46.454 91.383-112.098 91.383-197.081 0-42.311-12.869-81.246-38.427-116.67-25.648-35.47-60.52-63.443-104.523-83.944 50.393-18.344 89.283-46.047 116.659-83.018 27.296-36.96 40.99-81.934 40.99-134.913 0-85.445-32.772-152.546-98.405-201.562-65.543-48.881-149.16-73.298-250.861-73.298-87.997 0-164.501 22.962-229.401 68.918-64.99 45.833-96.407 112.414-94.205 199.598l1.276 3.838h210.876c0-30.344 10.408-55.552 31.304-75.624 20.907-20.083 47.65-30.175 80.151-30.175 38.89 0 70.838 10.86 95.752 32.354 25.106 21.641 37.524 48.474 37.524 80.422 0 45.336-11.865 78.322-35.515 99.048-23.74 20.715-57.144 31.033-100.324 31.033h-102.514v160.934h102.514z" />
<glyph unicode="&#xe929;" glyph-name="four" d="M772.473 343.211v584.774h-222.955v-2.021l-394.827-618.347 13.152-137.159h381.687v-202.443h222.955v202.443h96.836v172.753h-96.847zM549.518 343.211h-203.707l175.44 249.867 24.327 49.4 3.951-0.621v-298.646z" />
<glyph unicode="&#xe92a;" glyph-name="five" d="M201.032 397.612l54.627 530.373h554.395v-170.315h-376.359l-23.989-196.923c17.78 12.497 40.369 22.781 67.869 30.502 27.5 7.823 57.494 12.181 89.995 13.005 87.951 1.761 155.73-25.276 203.132-80.918 47.503-55.643 71.199-134.619 71.199-236.874 0-91.428-26.484-167.346-79.259-227.809-52.956-60.452-136.098-90.638-249.608-90.638-90.175 0-168.407 23.707-234.977 71.199-66.48 47.402-98.416 110.089-95.831 188.14l0.655 3.838 215.075 13.005c0-33.325 10.555-59.526 31.575-78.604s48.79-28.651 83.504-28.651c40.741 0 69.076 12.361 85.084 37.027 16.019 24.768 24.079 61.806 24.079 111.24 0 51.94-9.358 92.896-27.962 122.766-18.604 29.949-48.045 44.907-88.426 44.907-28.978 0-52.493-6.299-70.454-18.886-17.961-12.644-30.457-28.437-37.4-47.402l-196.923 11.018z" />
<glyph unicode="&#xe92b;" glyph-name="six" d="M567.468 927.985c35.876 0 67.925-3.014 96.125-9.212 28.211-6.22 59.616-16.166 94.217-29.859l-36.508-157.66c-29.938 8.986-55.778 15.703-77.6 20.173-21.731 4.561-46.747 6.751-74.947 6.751-53.046 0-95.492-18.898-127.541-56.726-32.038-37.852-48.113-93.889-48.113-168.159v-8.986c23.921 23.503 52.866 41.667 86.811 54.446 34.058 12.835 72.587 19.214 115.666 19.214 79.97 0 141.777-29.069 185.589-87.184 43.823-58.070 65.633-133.694 65.633-226.861 0-91.835-30.491-167.425-91.564-226.861-61.163-59.436-139.575-89.058-235.248-89.058-102.525 0-185.329 33.55-248.321 100.606-62.98 67.044-94.476 158.879-94.476 275.549v187.801c0 123.060 36.339 219.839 109.276 290.315 72.757 70.465 166.51 105.709 281.002 105.709zM523.182 432.596c-30.762 0-56.964-4.019-78.785-12.102-21.821-8.128-38.89-19.71-51.308-34.634v-41.678c0-67.462 11.131-119.222 33.415-155.38 22.183-36.147 53.317-54.13 93.483-54.13 32.501 0 58.973 14.371 79.507 43.18 20.455 28.798 30.773 64.256 30.773 106.070 0 47.018-9.855 83.616-29.486 109.637-19.722 26.032-45.55 39.037-77.6 39.037z" />
<glyph unicode="&#xe92c;" glyph-name="seven" d="M859.059 756.586c-101.904-116.015-171.681-222.977-209.25-320.84-37.569-97.66-56.444-211.677-56.444-341.657v-126.074h-222.752v126.074c0 128.241 23.289 245.905 69.867 352.923s114.853 210.232 205.005 309.585h-480.544v171.387h694.106v-171.399z" />
<glyph unicode="&#xe92d;" glyph-name="eight" d="M808.101 376.513c-29.035 38.619-68.399 68.647-117.957 90.096 39.714 20.907 70.928 48.836 93.573 83.899s33.957 74.947 33.957 119.854c0 82.894-27.556 146.518-82.612 190.973-55.135 44.365-127.62 66.649-217.276 66.649-92.738 0-167.967-22.284-225.551-67.044-57.697-44.546-86.54-108.125-86.54-190.567 0-44.918 11.865-84.982 35.605-120.215 23.729-35.187 56.681-63.127 98.958-83.526-52.121-21.449-93.11-51.488-123.048-90.096-29.859-38.608-44.828-82.747-44.828-132.317 0-86.732 32.591-154.465 97.761-203.165 65.091-48.689 148.053-73.028 248.93-73.028 96.949 0 176.648 24.226 239.007 72.757 62.439 48.519 93.551 116.298 93.551 203.436-0.011 49.547-14.517 93.697-43.53 132.294zM448.246 734.731c16.888 17.701 40.064 26.653 69.539 26.653 26.021 0 46.566-8.952 61.536-26.935s22.465-43.169 22.465-75.579c0-33.821-7.405-60.61-22.205-80.467-14.687-19.857-34.86-29.859-60.52-29.859-29.475 0-52.854 10.002-70.183 29.859-17.261 19.857-25.93 46.646-25.93 80.467 0.011 32.862 8.41 58.194 25.298 75.861zM602.057 167.286c-22.092-21.821-49.648-32.681-82.996-32.681-37.592 0-68.546 11.052-92.907 32.997-24.384 22.047-36.508 51.353-36.508 88.098 0 37.197 12.124 67.496 36.508 91.056 24.361 23.413 54.853 35.232 91.632 35.232 33.336 0 61.163-11.819 83.628-35.232 22.442-23.56 33.686-53.859 33.686-91.056s-11.040-66.593-33.042-88.414z" />
<glyph unicode="&#xe92e;" glyph-name="nine" d="M745.832 829.625c-60.813 65.543-138.492 98.36-232.878 98.36-96.136 0-174.537-31.406-235.26-94.217-60.61-62.8-90.909-140.354-90.909-232.595 0-96.136 24.271-172.81 72.757-229.773 48.373-57.065 115.011-85.536 199.542-85.536 31.597 0 61.344 6.435 89.103 19.496 27.759 13.095 52.121 32.354 73.028 58.013v-53.814c0-54.683-12.587-97.502-37.795-128.49-25.197-30.943-57.415-46.465-96.768-46.465-30.762 0-58.318 2.19-82.702 6.717-24.271 4.47-50.111 11.628-77.498 21.494l-37.152-154.465c31.135-12.779 64.008-22.736 98.315-29.814 34.42-7.022 67.383-10.544 99.037-10.544 100.787 0 184.505 32.501 250.872 97.4 66.457 64.911 99.681 151.259 99.681 258.898v234.582c0 114.887-30.491 205.073-91.372 270.752zM621.214 494.098c-12.768-16.245-28.922-29.035-48.373-38.439-19.36-9.392-41.543-14.1-66.367-14.1-33.686 0-59.424 14.653-77.148 43.959-17.791 29.216-26.551 67.733-26.551 115.666 0 42.672 9.765 80.061 29.396 112.098 19.71 32.049 46.363 48.113 80.151 48.113 32.038 0 58.138-13.919 78.514-41.667 20.263-27.804 30.378-68.196 30.378-121.095v-104.535z" />
<glyph unicode="&#xe92f;" glyph-name="zero" d="M747.197 833.136c-59.887 63.229-138.492 94.849-235.892 94.849-98.202 0-176.806-31.496-235.79-94.578-58.962-62.98-88.459-150.255-88.459-261.766v-247.339c0-111.511 29.678-198.774 89.013-261.766 59.424-63.026 138.288-94.522 236.513-94.522 97.411 0 175.835 31.496 235.169 94.522 59.424 62.992 89.182 150.266 89.182 261.766v247.339c0.011 111.060-29.938 198.232-89.735 261.495zM620.864 310.891c0-58.149-9.505-102.062-28.403-131.73-19.067-29.712-45.731-44.546-79.88-44.546-35.041 0-62.066 14.834-81.054 44.546-19.067 29.667-28.482 73.581-28.482 131.73v275.538c0 56.738 9.302 100.189 28.2 130.081 18.717 29.893 45.46 44.873 80.061 44.873 34.239 0 60.982-14.969 80.433-44.873s29.125-73.344 29.125-130.081v-275.538z" />
<glyph unicode="&#xe930;" glyph-name="A" d="M654.381 154.586h-285.416l-55.417-186.571h-234.718l313.141 959.97h119.38v-0.61l0.655 0.61h119.267l313.886-959.97h-234.808l-55.97 186.571zM420.329 326.041h182.586l-89.611 298.014h-3.94l-89.035-298.014z" />
<glyph unicode="&#xe931;" glyph-name="B" d="M146.744-31.985v959.97h314.541c119.086 0 211.971-22.070 278.473-66.209 66.683-44.241 99.94-110.032 99.94-197.566 0-45.697-10.521-86.179-31.654-121.592-21.042-35.357-54.006-62.077-98.811-80.117 57.009-12.305 99.376-37.761 126.887-76.493 27.432-38.653 41.137-83.312 41.137-133.829 0-93.596-31.36-164.411-94.205-212.321-62.822-47.899-152.998-71.842-270.39-71.842h-365.917zM369.619 527.784h87.624c53.633 0 93.743 9.347 120.034 27.985 26.393 18.683 39.635 46.487 39.635 83.402 0 40.911-12.768 70.679-38.326 89.419-25.547 18.593-64.516 27.985-117.302 27.985h-91.665v-228.791zM369.619 380.047v-240.588h143.041c47.526 0 83.12 9.302 106.883 28.030 23.752 18.694 35.594 47.334 35.594 85.942 0 40.945-10.521 71.944-31.372 92.975-20.85 21.178-55.315 32.399-103.124 33.629h-151.022z" />
<glyph unicode="&#xe932;" glyph-name="C" d="M877.234 296.126l1.276-3.883c1.738-106.341-28.301-186.988-90.006-241.943-61.705-54.864-149.16-82.296-262.443-82.296-115.293 0-207.941 35.232-277.773 105.652-69.833 70.567-104.794 162.898-104.794 276.949v194.766c0 113.69 33.686 205.784 100.956 276.532 67.27 70.702 156.272 106.070 266.913 106.070 118.296 0 209.86-27.567 274.579-82.702s96.204-135.274 94.476-240.294l-1.919-3.883h-210.763c0 57.223-12.226 98.258-36.508 123.094-24.373 24.689-64.358 37.197-119.854 37.197-48.745 0-86.077-19.631-112.098-58.646-26.1-39.116-39.161-91.146-39.161-156.046v-196.065c0-65.408 14.337-117.754 42.999-157.005 28.572-39.285 69.562-59.018 122.958-59.018 49.569 0 85.355 12.463 107.346 37.197 22.002 24.835 33.042 66.232 33.042 124.335h210.774z" />
<glyph unicode="&#xe933;" glyph-name="N" d="M912.116-31.985h-222.108l-351.32 603.953-4.030-1.321v-602.633h-222.774v959.97h222.774l351.399-603.208 3.951 1.332v601.876h222.108z" />
<glyph unicode="&#xe934;" glyph-name="P" d="M780.68 840.925c-66.864 58.047-157.118 87.060-270.932 87.060h-366.628v-959.97h222.853v329.059h143.775c113.814 0 204.068 28.888 270.932 86.687 66.774 57.754 100.2 133.92 100.2 228.396 0 94.533-33.426 170.744-100.2 228.768zM620.469 508.333c-25.445-26.574-62.45-39.861-110.721-39.861h-143.775v288.114h143.775c48.734 0 85.739-13.614 111.094-40.945 25.264-27.229 37.852-62.123 37.852-104.749 0-41.836-12.677-75.929-38.224-102.559z" />
<glyph unicode="&#xe935;" glyph-name="funivia" d="M948.624 868.775c47.063 8.072 27.093 66.503-19.835 58.454-284.468-48.79-568.947-97.581-853.403-146.36-47.063-8.083-27.105-66.514 19.835-58.465 123.85 21.234 247.7 42.48 371.55 63.726-42.819-68.083-85.637-136.166-128.456-204.26-1.659-2.63-2.235-5.204-2.122-7.654h-283.395v-606.2h898.175v606.2h-258.537c-47.616 75.376-95.233 150.751-142.838 226.116 133.016 22.815 266.022 45.63 399.027 68.444zM317.488 218.605h-204.836v305.42h204.847v-305.42zM613.82 218.605h-223.869v305.42h223.869v-305.42zM880.293 218.605h-194.033v305.42h194.033v-305.42zM650.271 574.215h-274.94c45.72 72.7 91.44 145.412 137.159 218.112 45.912-72.7 91.846-145.4 137.78-218.112z" />
<glyph unicode="&#xe936;" glyph-name="m_extraurban_bus" d="M391.339 524.713c-13.163 0-23.763-10.589-23.763-23.752 0-13.084 10.6-23.763 23.763-23.763 13.118 0 23.729 10.679 23.729 23.763-0.011 13.174-10.623 23.752-23.729 23.752zM650.983 603.092l-13.005 93.122c-1.727 11.379-5.588 18.819-20.309 18.819h-216.317c-14.698 0-18.525-7.428-20.309-18.819l-12.971-93.122c-1.242-9.008 1.389-17.836 13.716-17.836h255.467c12.373 0 14.924 8.828 13.727 17.836zM438.899 736.086h141.269c13.908 0 13.908 20.884 0 20.884h-141.257c-13.953-0.011-13.953-20.884-0.011-20.884zM509.511 924.226c-185.431 0-335.843-150.401-335.843-335.832 0-251.899 335.843-623.72 335.843-623.72s335.843 371.821 335.843 623.72c0.011 185.431-150.401 335.832-335.843 335.832zM681.271 421.714h-28.753v-27.771c0-33.867-49.558-33.867-49.558 0v27.771h-186.876v-27.771c0-33.867-49.524-33.867-49.524 0v27.771h-28.787v177.088l16.719 128.524c4.606 23.12 19.496 32.422 41.712 41.633 21.968 9.167 74.484 20.139 113.317 20.433-0.519 0-1.129 0-1.648 0h3.341c-0.519 0-1.129 0-1.682 0 38.8-0.294 91.428-11.266 113.284-20.433 22.262-9.223 37.106-18.514 41.757-41.633l16.719-128.524v-177.088zM627.705 524.713c-13.118 0-23.763-10.589-23.763-23.752 0-13.084 10.645-23.763 23.763-23.763 13.129 0 23.763 10.679 23.763 23.763 0 13.174-10.645 23.752-23.763 23.752z" />
<glyph unicode="&#xe937;" glyph-name="m_urban_bus" d="M637.944 499.878c-18.051 0-32.67-14.642-32.67-32.693 0-17.994 14.619-32.613 32.67-32.613 18.028 0 32.67 14.619 32.67 32.613-0.011 18.051-14.642 32.693-32.67 32.693zM418.726 742.453h195.873c5.17 0 9.37 4.109 9.37 9.302v18.593c0 5.249-4.199 9.37-9.37 9.37h-195.873c-5.193 0-9.313-4.12-9.313-9.37v-18.581c0-5.193 4.12-9.313 9.313-9.313zM386.056 499.878c-18.051 0-32.67-14.642-32.67-32.693 0-17.994 14.619-32.613 32.67-32.613 18.028 0 32.67 14.619 32.67 32.613 0 18.051-14.642 32.693-32.67 32.693zM511.994 927.782c-185.442 0-335.843-150.458-335.843-335.843 0-251.899 335.843-623.709 335.843-623.709s335.843 371.809 335.843 623.709c0 185.374-150.413 335.843-335.843 335.843zM735.863 611.875c0-5.249-4.12-9.449-9.313-9.449h-18.683c0-26.766 0-50.529 0-63.793 0-62.743 0-104.049 0-104.049 0-13.964-5.114-22.882-13.592-28.482l4.278 0.519v-28.030c0-10.194-8.342-18.581-18.627-18.581h-37.332c-10.284 0-18.627 8.388-18.627 18.581v18.66h-223.869v-18.66c0-10.194-8.399-18.581-18.706-18.581h-37.31c-10.307 0-18.627 8.388-18.627 18.581v28.030l4.256-0.519c-8.455 5.599-13.569 14.517-13.569 28.482 0 0 0 50.224 0 104.049 0 12.745 0 36.486 0 63.793h-18.706c-5.114 0-9.313 4.199-9.313 9.449v74.518c0 5.249 4.199 9.449 9.313 9.449h18.706c0 19.789 0 36.576 0 46.623 0 49.253 18.627 65.204 74.563 65.204h261.28c46.566 0 55.88-26.45 55.88-74.574 0-8.625 0-21.878 0-37.253h18.683c5.193 0 9.313-4.199 9.313-9.449v-74.518zM642.584 714.422c-114.582 0-177.235 0-261.201 0-18.627 0-27.996-9.291-27.996-28.030 0-29.317 0-83.966 0-111.85 0-18.66 9.37-28.030 27.996-28.030l261.201 0.745c9.787 0 28.019 8.625 28.019 27.285 0 9.449 0 93.268 0 111.85 0 18.739-9.313 28.030-28.019 28.030z" />
<glyph unicode="&#xe938;" glyph-name="m_train" d="M425.454 624.473h173.069c20.478 0 37.084 16.64 37.084 37.084v49.456c0 20.501-16.606 37.084-37.084 37.084h-173.069c-20.455 0-37.061-16.583-37.061-37.084v-49.456c0-20.444 16.595-37.084 37.061-37.084zM425.454 513.278c-17.057 0-30.875-13.874-30.875-30.943 0-17.035 13.829-30.898 30.875-30.898 17.103 0 30.898 13.874 30.898 30.898 0 17.069-13.795 30.943-30.898 30.943zM474.91 760.458h74.156c6.841 0 12.373 5.52 12.373 12.373v24.734c0 6.785-5.52 12.361-12.373 12.361h-74.156c-6.83 0-12.35-5.577-12.35-12.361v-24.734c0-6.852 5.509-12.373 12.35-12.373zM598.523 513.278c-17.069 0-30.898-13.874-30.898-30.943 0-17.035 13.84-30.898 30.898-30.898 17.080 0 30.898 13.874 30.898 30.898 0 17.069-13.818 30.943-30.898 30.943zM511.983 927.782c-185.419 0-335.809-150.413-335.809-335.832 0-251.922 335.809-623.72 335.809-623.72s335.843 371.798 335.843 623.72c0 185.408-150.39 335.832-335.843 335.832zM536.717 865.535c10.25 0 18.559-8.297 18.559-18.536 0-10.25-8.297-18.536-18.559-18.536-10.228 0-18.559 8.275-18.559 18.536 0.011 10.228 8.331 18.536 18.559 18.536zM487.272 865.535c10.25 0 18.559-8.297 18.559-18.536 0-10.25-8.297-18.536-18.559-18.536-10.239 0-18.525 8.275-18.525 18.536 0 10.228 8.275 18.536 18.525 18.536zM647.98 284.566l-55.665 92.681h-160.652l-55.643-92.681h-55.631l81.201 133.389c-32.715 10.149-56.478 40.674-56.478 76.742v247.248c0 44.365 35.989 80.32 80.331 80.32h173.069c44.365 0 80.343-35.966 80.343-80.32v-247.237c0-36.068-23.752-66.582-56.467-76.742l81.178-133.389h-55.586z" />
<glyph unicode="&#xe939;" glyph-name="m_parking-lot" d="M539.494 719.231h-98.337v-163.237h98.337c27.771 0 48.836 7.575 63.15 22.713 14.371 15.15 21.517 34.476 21.517 57.912 0 23.876-7.078 43.586-21.325 59.221-14.201 15.59-35.345 23.39-63.342 23.39zM511.983 927.782c-185.419 0-335.821-150.446-335.821-335.854 0-251.911 335.821-623.697 335.821-623.697s335.854 371.787 335.854 623.697c0 185.397-150.401 335.854-335.854 335.854zM674.373 522.557c-32.783-28.922-77.724-43.406-134.879-43.406h-98.337v-180.272h-99.714v497.15h198.052c57.155 0 102.096-14.54 134.879-43.722 32.772-29.103 49.174-67.473 49.174-115.011 0-47.605-16.403-85.852-49.174-114.74z" />
<glyph unicode="&#xe93a;" glyph-name="m_bike" d="M344.931 521.462c-4.493-0.056-8.32-0.135-11.56-0.135-11.673 0-17.599 0.621-21.494 5.938-3.669 5.114 2.145 15.398 25.626 50.856 7.236 10.871 14.676 22.115 20.252 31.53-9.663 2.924-19.451 4.403-29.193 4.403-45.483 0-81.336-32.241-81.607-73.445-0.406-52.561 38.235-81.37 76.617-82.68 0.722 0 1.501-0.023 2.28-0.023 3.15 0 75.906 0.734 83.244 63.771h-40.030c-9.742 0.011-17.656-0.102-24.136-0.214zM428.66 650.381c-3.556 6.367-6.581 11.052-8.546 13.806l-24.903-41.182c15.985-17.407 34.386-40.877 41.283-71.142l47.108-0.542c-3.206 6.502-10.442 20.105-20.884 38.551-13.253 23.413-28.617 50.664-34.058 60.508zM407.911 551.513c-3.025 22.984-14.032 34.533-26.19 45.675l-29.227-46.476 55.417 0.802zM511.983 927.782c-185.419 0-335.809-150.469-335.809-335.866 0-251.911 335.809-623.686 335.809-623.686s335.843 371.776 335.843 623.686c0 185.385-150.39 335.866-335.843 335.866zM766.027 451.223c-20.647-16.493-44.602-25.118-69.393-25.118-29.17 0-57.494 12.203-79.711 34.375-15.804 15.816-30.751 52.448-30.751 75.421 0 15.195 5.453 35.526 13.919 51.793 6.446 12.282 28.967 36.903 38.45 40.527 1.919 0.745 2.359 1.084 2.438 1.208 0.079 0.169 0.158 0.937-0.316 3.725-0.858 5.611-4.741 15.601-11.842 30.593-0.214 0.44-0.429 0.858-0.643 1.185-4.775-5.407-17.035-20.388-32.963-40.55-18.83-23.797-37.479-47.447-41.453-52.471-4.008-5.057-7.981-10.092-8.85-11.221-0.813-1.072-7.936-10.115-15.804-20.015l-12.971-16.199-0.564-50.743-2.585-0.621c-2.867-0.7-13.942-2.438-18.66-2.043-5.622 0.406-10.758 1.366-11.661 8.094-0.294 1.964-0.373 4.098 1.072 5.915 1.851 2.348 5.114 2.721 10.216 3.048 1.874 0.124 3.409 0.124 4.561 0.090 0 0.847 0.045 1.795 0.079 2.924 0.158 4.628 0.373 11.661 0.237 17.588l-0.237 12.96h-29.057c-15.251 0-27.387-0.406-32.252-0.745-1.23-10.149-4.945-31.71-22.713-51.195-19.112-20.805-28.154-28.459-47.334-35.989-12.937-4.978-20.501-6.536-35.357-7.044-4.64-0.192-8.207-0.26-11.165-0.26-10.341 0-14.563 1.411-28.482 6.028-40.471 13.456-70.95 53.058-74.123 96.305v14.822c0.147 2.405 0.373 4.685 0.7 6.875 2.845 19.654 12.587 41.588 24.813 55.823 9.37 10.973 29.645 25.456 44.264 31.564 27.545 8.918 51.748 8.839 83.097-0.158l37.287 57.178-10.691 20.139-7.428-0.971c-0.734-0.056-1.332-0.102-1.897-0.102-8.546 0-9.155 7.767-9.596 13.434-0.282 3.511-0.079 10.171 2.585 12.847 1.389 1.422 2.834 2.924 30.175 2.924 4.087 0 8.625-0.034 13.648-0.113 34.849-0.418 41.114-1.095 44.636-4.764 3.071-3.104 2.958-5.915 2.326-7.744-1.389-3.962-6.186-8.026-31.643-11.040-8.467-1.061-14.088-1.863-17.272-2.438 0.621-1.355 1.456-3.071 2.472-5.080l3.104-6.107h92.693c46.217 0 79.914 0.564 90.446 1.174-2.19 6.22-7.767 19.451-9.212 21.325-0.621 0.248-4.877 1.219-22.408 1.219-20.58 0-25.027 0.395-29.712 5.057-5.881 5.893-6.322 10.894-1.479 17.17 3.409 4.595 8.173 4.933 36.226 4.933 31.462 0 32.693 0 36.881-6.48 3.398-5.057 13.479-28.899 34.77-82.217l9.686-24.294 32.196 1.163c46.939 0 88.888-32.613 104.365-81.11 4.12-12.79 3.556-43.665-1.072-59.029-6.096-19.349-18.886-38.337-36.045-53.566zM445.932 678.671l53.678-105.257-0.7 26.755 7.146 0.361c3.104 0.169 6.367 0.384 9.426 0.384 4.199 0 15.364 0 15.725-8.309 0.113-2.292-0.598-4.391-2.1-5.994-3.116-3.375-8.884-4.008-13.49-4.256l0.011-13.49 28.459 34.668c3.996 4.888 7.891 9.945 10.499 13.4 1.445 1.897 2.529 3.262 3.037 3.906 19.541 23.989 38.010 48.305 43.507 56.636-9.11 1.106-38.608 1.208-77.961 1.208h-77.238zM773.636 566.606c-0.632 1.253-1.264 2.574-1.93 3.974-6.649 14.348-25.761 33.494-40.121 40.233-9.821 4.572-14.529 5.43-33.596 6.265-1.422 0.079-3.104 0.214-4.877 0.35-5.249 0.452-11.357 0.643-14.088-0.677 2.551-8.568 16.685-46.984 19.981-53.058 6.322-13.603 12.745-27.477 5.509-37.603l-0.485-0.531c-2.574-2.337-5.057-3.511-7.597-3.511-7.304 0-12.564 9.471-19.146 25.784-4.414 10.86-9.957 24.282-12.395 29.904-2.551 5.814-5.735 13.761-7.123 17.543-2.438 6.367-4.312 9.641-5.52 9.641-2.89 0-10.623-7.947-14.326-11.729-13.66-13.897-19.439-26.055-22.916-48.057-6.107-38.913 20.647-78.13 60.915-89.272 6.389-1.761 13.072-2.619 19.925-2.619 21.392 0 42.559 8.625 58.104 23.65 14.359 15.782 28.832 35.097 26.179 57.562-0.26 19.518-2.879 24.824-6.491 32.151z" />
<glyph unicode="&#xe93b;" glyph-name="m_funivia" d="M584.672 610.633h80.918v-127.361h-80.918v127.361zM345.45 610.633h85.423v-127.361h-85.423v127.361zM461.104 610.633h93.359v-127.361h-93.359v127.361zM511.983 927.782c-185.431 0-335.821-150.446-335.821-335.854 0-251.911 335.821-623.697 335.821-623.697s335.854 371.787 335.854 623.697c0 185.408-150.39 335.854-335.854 335.854zM694.083 754.419c-55.462-9.516-110.924-19.033-166.398-28.538 19.857-31.439 39.714-62.868 59.56-94.307h107.82v-252.802h-374.575v252.802h118.183c-0.034 1.016 0.214 2.1 0.892 3.195 17.859 28.391 35.707 56.783 53.577 85.174-51.646-8.85-103.304-17.712-154.951-26.574-19.575-3.353-27.906 21.009-8.275 24.373 118.634 20.343 237.269 40.696 355.892 61.039 19.575 3.364 27.906-21.009 8.275-24.361zM455.008 631.574h114.65c-19.146 30.322-38.314 60.644-57.449 90.966-19.067-30.333-38.145-60.644-57.201-90.966z" />
<glyph unicode="&#xe93c;" glyph-name="segnala_problemi" d="M512.017 928.019c-264.622 0-480.024-215.301-480.024-480.002 0-264.656 215.414-480.024 480.024-480.024s480.002 215.38 480.002 480.024c-0.011 264.701-215.38 480.002-480.002 480.002zM512.017 48.245c-220.471 0-399.885 179.323-399.885 399.772 0 220.505 179.414 399.817 399.885 399.817s399.806-179.312 399.806-399.817c0-220.449-179.335-399.772-399.806-399.772zM461.296 312.698h101.487v-84.599h-101.487v84.599zM461.296 684.936h101.487v-270.763h-101.487v270.763z" />
<glyph unicode="&#xe93d;" glyph-name="recurring" d="M808.216 423.48v215.121h-444.334v-148.127l-296.224 222.162 296.227 222.169v-148.127h573.958c10.141 0 18.502-8.318 18.502-18.502v-465.447zM215.784 472.524v-215.118h444.35v148.127l296.211-222.169-296.211-222.169v148.127h-573.962c-10.177 0-18.519 8.312-18.519 18.506v465.447z" />
<glyph unicode="&#xe93e;" glyph-name="ac" d="M449.375 836.658c-0.384-47.549-39.635-85.795-87.782-85.445-48.057 0.361-86.856 39.138-86.619 86.71 0.147 47.571 39.251 85.965 87.319 85.829 48.147-0.147 87.082-38.755 87.082-86.315zM290.146 793.264l37.039-427.080 315.918 1.919 122.89-294.47 148.177 46.815-31.202 74.077-76.132-19.473-109.163 269.137h-294.458v60.44h175.474v78.040h-196.934l-3.906 169.649zM280.641 576.461c-458.519-308.016 118.059-881.083 421.187-448.235l-33.426 115.067c-134.778-371.968-684.827-72.632-382.173 232.054l-5.588 101.114z" />
<glyph unicode="&#xe93f;" glyph-name="taxi" d="M863.563 752.33c-10.442 29.961-38.834 51.285-72.113 51.285h-127.022v101.6h-304.855v-101.6h-126.966c-33.257 0-61.784-21.325-72.17-51.285l-105.652-304.325v-406.444c0-27.895 22.826-50.777 50.789-50.777h50.789c28.245 0 50.789 22.882 50.789 50.777v50.822h609.699v-50.822c0-27.895 22.871-50.777 50.789-50.777h50.789c28.177 0 50.789 22.882 50.789 50.777v406.444l-105.652 304.325zM232.607 244.795c-42.198 0-76.245 34.047-76.245 76.222 0 42.153 34.047 76.2 76.245 76.2 42.13 0 76.188-34.047 76.188-76.2 0-42.186-34.058-76.222-76.188-76.222zM791.45 244.795c-42.186 0-76.245 34.047-76.245 76.222 0 42.153 34.058 76.2 76.245 76.2 42.141 0 76.188-34.047 76.188-76.2 0-42.186-34.047-76.222-76.188-76.222zM156.362 498.805l76.245 228.622h558.843l76.188-228.622h-711.276z" />
<glyph unicode="&#xe940;" glyph-name="access_outline" d="M16.008 943.992v-991.985h991.985v991.985h-991.985zM965.569-5.569h-907.138v907.138h907.127v-907.138zM671.957 178.552l-28.177 96.971c-113.555-313.446-577.041-61.219-322.014 195.534l-4.707 85.186c-386.361-259.519 99.466-742.388 354.899-377.691zM356.276 379.087l266.202 1.626 103.541-248.14 124.866 39.443-26.292 62.439-64.155-16.403-91.982 226.759h-248.129v50.924h147.861v65.746h-165.946l-3.285 142.962-0.587 0.26c34.329 5.881 60.565 35.176 60.858 70.804v0.632c0 40.087-32.805 72.632-73.378 72.745-40.504 0.113-73.445-32.23-73.592-72.339-0.068-15.466 4.854-29.791 13.14-41.599l30.875-355.858z" />
<glyph unicode="&#xe941;" glyph-name="access" d="M15.996 943.992v-991.985h991.996v991.985h-991.996zM308.332 561.097l4.945-89.024c-266.439-268.189 217.773-531.705 336.396-204.249l29.43-101.317c-266.857-381.032-774.404 123.421-370.771 394.59zM735.581 118.45l-108.17 259.214-278.101-1.682-32.23 371.787c-8.67 12.373-13.818 27.308-13.739 43.473 0.147 41.882 34.566 75.68 76.877 75.545 42.39-0.147 76.663-34.104 76.663-75.963v-0.7c-0.294-37.208-27.703-67.79-63.579-73.942l0.621-0.282 3.432-149.34h173.363v-68.693h-154.477v-53.204h259.226l96.091-236.919 67.022 17.159 27.466-65.227-130.465-41.227z" />
<glyph unicode="&#xe942;" glyph-name="text_size" d="M15.996 943.992v-991.985h991.996v991.985h-991.996zM493.673 429.684h-109.92v-256.494h-109.92v256.494h-109.92v109.92h329.747v-109.92zM860.075 612.868h-183.195v-439.667h-109.92v439.667h-183.195v109.931h476.31v-109.931z" />
<glyph unicode="&#xe943;" glyph-name="text_size_outline" d="M16.008 943.992v-991.985h991.985v991.985h-991.985zM965.569-5.569h-907.138v907.138h907.127v-907.138zM566.96 173.201h109.92v439.667h183.195v109.931h-476.31v-109.931h183.195zM273.845 173.201h109.92v256.483h109.908v109.92h-329.747v-109.92h109.92z" />
<glyph unicode="&#xe944;" glyph-name="m_parcometro" d="M512.006 802.261c-92.839 0-168.351-75.534-168.351-168.362 0-6.57 0.406-13.197 1.264-20.286 0.452-3.827 1.039-7.62 1.738-11.289l0.135-0.847 39.195-254.405h248.592l41.317 239.798 3.217 26.743c0.835 7.089 1.264 13.716 1.264 20.286-0.011 92.828-75.545 168.362-168.373 168.362zM581.613 415.652h-139.225v66.514h139.237v-66.514zM625.56 582.061h-227.132v24.948c0 75.071 38.506 136.132 113.588 136.132 75.048 0 113.555-61.050 113.555-136.132v-24.948zM511.994 927.782c-185.442 0-335.843-150.48-335.843-335.854 0-251.933 335.843-623.697 335.843-623.697s335.843 371.764 335.843 623.697c0 185.363-150.401 335.854-335.843 335.854zM676.597 297.187h-139.654v-112.245h-49.885v112.245h-143.842l-45.663 296.287c-0.869 4.64-1.592 9.392-2.167 14.156-1.084 8.986-1.626 17.836-1.626 26.269 0 120.328 97.897 218.236 218.247 218.236 119.752 0 217.31-97.005 218.236-216.531l-53.645-338.417z" />
<glyph unicode="&#xe945;" glyph-name="parcometro" d="M411.828 395.682h200.343v-95.707h-200.343v95.707zM512.006 771.171c-108.034 0-176.264-87.872-176.264-195.873v-35.91h352.472v35.91c0 108-68.219 195.873-176.208 195.873zM512.006 927.996c-173.171 0-314.022-140.874-314.022-314.011 0-12.124 0.768-24.835 2.326-37.784 0.835-6.864 1.874-13.727 3.116-20.365l65.701-426.335h206.97v-161.51h71.786v161.521h200.93l77.182 486.922c-1.321 172.019-141.675 311.561-313.988 311.561zM747.818 546.32l-59.458-345.044h-357.687l-56.591 367.26c-1.016 5.294-1.84 10.758-2.506 16.29-1.219 10.16-1.818 19.71-1.818 29.148 0 133.558 108.655 242.236 242.236 242.236 133.57 0 242.213-108.678 242.213-242.236 0-9.437-0.587-18.988-1.772-29.148l-4.617-38.506z" />
<glyph unicode="&#xe946;" glyph-name="POI" d="M511.994 908.004c-178.025 0-321.992-144.001-321.992-321.992 0-241.502 321.992-598.004 321.992-598.004s321.992 356.502 321.992 598.004c0.011 177.991-143.955 321.992-321.992 321.992zM511.994 471.012c-63.477 0-114.999 51.488-114.999 114.999 0 63.455 51.511 114.999 114.999 114.999s114.999-51.545 114.999-114.999c0-63.511-51.511-114.999-114.999-114.999z" />
<glyph unicode="&#xe947;" glyph-name="game_diary" d="M799.883 927.782h-575.754c-53.012 0-95.955-42.943-95.955-95.955v-767.63c0-53.012 42.943-95.955 95.955-95.955h575.754c53.012 0 95.933 42.954 95.933 95.955v767.619c0 53.024-42.909 95.966-95.933 95.966zM224.129 831.815h239.888v-383.821l-119.944 71.966-119.944-71.966v383.821z" />
<glyph unicode="&#xe948;" glyph-name="game_points" d="M511.994 927.782c-264.972 0-479.776-214.815-479.776-479.776s214.815-479.776 479.776-479.776 479.776 214.804 479.776 479.776-214.804 479.776-479.776 479.776zM762.641 721.399c-61.761-60.937-73.095-133.716-84.057-204.091-9.031-57.98-17.554-112.73-52.945-157.829-38.608-49.219-105.799-75.251-194.225-75.251-12.621 0-25.648 0.531-38.822 1.592-7.214-17.678-25.073-65.001-33.325-119.357-2.122-14.213-13.897-23.108-30.762-23.108-13.524 0-27.206 5.599-34.928 14.28-5.057 5.644-7.405 12.587-6.627 19.462 15.59 133.931 101.893 253.006 171.545 329.341 33.799 37.005 66.661 67.53 92.806 90.108-73.061-33.234-189.664-106.239-251.854-250.003l-11.086-25.637-10.058 26.077c-40.042 103.733-25.174 193.762 44.173 267.602 94.454 100.538 288.611 138.051 388.788 138.051 43.281 0 52.166-7.089 55.315-14.777 2.303-5.588 0.802-11.752-3.94-16.459z" />
<glyph unicode="&#xe949;" glyph-name="game_statistic" d="M991.77 622.486c0-47.989-39.274-87.251-87.251-87.251-7.834 0-15.24 0.835-22.205 3.059l-155.289-154.86c2.19-6.999 3.059-14.834 3.059-22.679 0-47.944-39.296-87.24-87.251-87.24-47.944 0-87.24 39.285-87.24 87.24 0 7.834 0.869 15.68 3.059 22.679l-111.229 111.229c-6.999-2.167-14.834-3.059-22.668-3.059-7.846 0-15.646 0.881-22.645 3.059l-198.492-198.898c2.213-6.965 3.093-14.371 3.093-22.239 0-47.955-39.296-87.218-87.24-87.218-47.978 0-87.251 39.263-87.251 87.218 0 47.978 39.274 87.24 87.251 87.24 7.834 0 15.24-0.835 22.205-3.059l198.932 198.492c-2.213 6.965-3.082 14.811-3.082 22.645 0 47.944 39.296 87.24 87.251 87.24 47.978 0 87.24-39.285 87.24-87.24 0-7.834-0.847-15.68-3.059-22.645l111.252-111.252c6.977 2.213 14.811 3.059 22.645 3.059s15.68-0.847 22.645-3.059l154.894 155.301c-2.213 6.965-3.093 14.371-3.093 22.25 0 47.944 39.296 87.206 87.24 87.206 47.966-0.011 87.229-39.274 87.229-87.218z" />
<glyph unicode="&#xe94a;" glyph-name="game_rules" d="M867.085 665.914c-2.258 5.475-4.99 10.713-8.783 15.24l-209.386 229.107c-4.741 5.272-10.499 9.042-16.741 12.294-7.202 3.714-15.24 5.215-23.718 5.215h-399.535c-31.010 0-56.749-26.484-56.749-59.684v-837.644c0-33.46 25.75-62.224 56.749-62.224h607.408c30.999 0 55.496 28.764 55.496 62.224v609.936c0 9.042-1.23 17.814-4.741 25.535zM272.129 642.456c0 3.714 4.47 5.215 8.478 5.215h176.896c4.019 0 6.999-1.501 6.999-5.215v-27.014c0-3.522-2.732-7.733-6.999-7.733h-176.896c-4.008 0-8.478 4.222-8.478 7.733v27.014zM272.129 322.587c0 3.714 4.47 5.238 8.478 5.238h305.363c3.962 0 5.972-1.524 5.972-5.238v-26.98c0-3.488-1.761-7.755-5.972-7.755h-305.363c-4.008 0-8.478 4.267-8.478 7.755v26.98zM671.912 135.666c0-3.488-1.761-7.755-5.994-7.755h-385.311c-4.008 0-8.478 4.267-8.478 7.755v26.98c0 3.737 4.47 5.238 8.478 5.238h385.3c4.041 0 5.994-1.501 5.994-5.238v-26.98h0.011zM751.871 455.513c0-3.466-1.75-7.733-6.017-7.733h-465.247c-4.008 0-8.478 4.256-8.478 7.733v27.014c0 3.737 4.47 5.238 8.478 5.238h465.247c4.008 0 6.017-1.501 6.017-5.238v-27.014zM634.682 645.188c-13.976 0-27.737 13.005-27.737 28.233v164.874l177.912-193.107h-150.176z" />
<glyph unicode="&#xe94b;" glyph-name="game_challenge" d="M681.090 359.083c121.807 11.481 310.692 128.151 310.692 298.816 0 59.955-44.975 119.944-119.955 119.944-44.376 0-72.565-16.188-90.412-37.027 0.214 12.090 0.452 24.237 0.452 37.027 0 29.972 0 59.966-29.972 59.966-29.994 0-449.793 0-479.787 0-29.972 0-29.972-29.983-29.972-59.966 0-12.779 0.237-24.937 0.452-37.027-17.848 20.839-46.036 37.027-90.412 37.027-74.981 0-119.955-60-119.955-119.944 0-170.665 188.885-287.335 310.692-298.816 53.837-60.892 109.107-60.192 109.107-90.999-16.516 0-29.972-13.434-29.972-29.994 0-16.516 13.456-29.972 29.972-29.972 0-59.978-89.95-29.994-89.95-89.95 0 0-89.961 0-89.961-59.989h479.787c0 59.989-89.961 59.989-89.961 59.989 0 59.955-89.95 29.972-89.95 89.95 16.516 0 29.961 13.456 29.961 29.972 0 16.549-13.445 29.994-29.961 29.994-0.011 30.807 55.259 30.107 109.107 90.999zM781.866 597.933c29.994 0 29.994 29.972 29.994 59.966s14.992 59.955 59.966 59.955c44.975 0 59.989-29.949 59.989-59.955 0-119.436-114.096-200.693-206.033-228.927 19.089 41.137 35.345 96.237 45.347 170.744 3.116-1.095 6.593-1.784 10.736-1.784zM92.196 657.899c0 29.994 15.014 59.955 59.989 59.955s59.966-29.949 59.966-59.955c0-30.006 0-59.966 29.994-59.966 4.132 0 7.609 0.7 10.747 1.784 9.991-74.506 26.258-129.607 45.347-170.744-91.982 28.233-206.044 109.502-206.044 228.927z" />
<glyph unicode="&#xe94c;" glyph-name="game_tutorial" d="M363.501 551.265v170.924c0 63.014 51.184 114.221 114.221 114.221 63.059 0 114.243-51.206 114.243-114.221v-170.924c55.281 37.050 91.383 99.579 91.383 170.924 0 113.792-91.846 205.592-205.626 205.592s-205.615-91.801-205.615-205.592c0-71.346 36.102-133.874 91.395-170.924zM813.113 339.7l-207.444 103.327c-7.767 3.15-15.974 4.967-24.677 4.967h-34.713v274.195c0 37.908-30.627 68.512-68.557 68.512-37.919 0-68.535-30.604-68.535-68.512v-490.771l-156.723 32.941c-3.658 0.429-6.864 1.332-10.973 1.332-14.179 0-26.946-5.927-36.090-15.104l-36.102-36.519 225.709-225.766c12.361-12.327 29.712-20.072 48.452-20.072h310.263c34.262 0 60.768 25.152 65.814 58.521l34.284 240.78c0.429 3.195 0.881 6.344 0.881 9.121 0 28.346-17.351 53.012-41.588 63.048z" />
<glyph unicode="&#xe94d;" glyph-name="game_badge" d="M508.484 842.788c-218.010 0-394.771-176.761-394.771-394.816 0-218.010 176.761-394.771 394.771-394.771 218.055 0 394.816 176.761 394.816 394.771 0 218.055-176.761 394.816-394.816 394.816zM508.484 82.744c-201.393 0-365.228 163.846-365.228 365.239 0 201.438 163.835 365.273 365.228 365.273s365.285-163.846 365.285-365.273c0-201.393-163.891-365.239-365.285-365.239zM687.502 665.576c-2.111 5.136-8.105 9.912-37.231 9.912-67.406 0-198.108-25.208-261.687-92.896-46.646-49.705-56.636-110.303-29.712-180.136l6.751-17.52 7.473 17.249c41.836 96.745 120.35 145.863 169.513 168.249-17.599-15.183-39.714-35.707-62.45-60.644-46.916-51.387-104.998-131.515-115.485-221.668-0.497-4.628 1.072-9.313 4.459-13.14 5.182-5.814 14.405-9.55 23.503-9.55 11.345 0 19.27 5.938 20.704 15.533 5.588 36.553 17.565 68.399 22.42 80.32 8.918-0.722 17.644-1.039 26.111-1.039h0.045c59.526 0 104.727 17.52 130.702 50.608 23.819 30.344 29.588 67.169 35.605 106.205 7.383 47.368 15.048 96.35 56.602 137.419 3.217 3.183 4.211 7.36 2.675 11.097zM930.404 87.158c-11.932 27.375-25.129 54.57-39.714 81.539 28.222 11.944 57.449 22.792 87.568 32.512-300.678 126.209-639.739 125.385-939.932-2.382 0.192-0.463 0.406-0.903 0.587-1.355 31.112-9.866 61.231-20.93 90.266-33.178-13.592-25.524-26.066-51.274-37.321-77.125 268.189 112.539 570.38 112.539 838.547-0.011v0 0zM82.917 78.285l4.696 10.724c10.623 24.486 22.408 48.982 35.029 72.937-27.601 11.436-56.196 21.878-85.14 31.010l-2.021 0.689-3.251 7.654 4.324 1.84c150.875 64.256 310.567 96.802 474.594 96.802 161.905 0 319.666-31.744 468.927-94.409l11.707-4.945-12.056-3.883c-27.974-8.997-55.654-19.168-82.442-30.344 13.558-25.343 26.111-51.376 37.411-77.317l4.685-10.758-10.803 4.549c-132.87 55.744-273.292 84.057-417.416 84.057s-284.558-28.324-417.416-84.057l-10.826-4.549zM50.326 198.714c27.466-8.997 54.57-19.123 80.727-30.119l4.719-1.987-2.427-4.538c-11.571-21.708-22.476-43.902-32.422-66.085 130.804 53.261 268.754 80.309 410.214 80.309s279.422-27.048 410.214-80.309c-10.679 23.729-22.341 47.357-34.815 70.454l-2.427 4.549 4.719 2.032c24.677 10.397 50.156 20.026 75.917 28.674-144.644 58.939-297.19 88.877-453.597 88.877-159.116 0-314.090-30.931-460.822-91.857z" />
<glyph unicode="&#xe94e;" glyph-name="game_challenge_assign" d="M756.116 56.61h-488.231v8.467c0 49.344 54.277 65.091 88.911 67.135 3.974 28.843 28.99 37.174 49.423 43.981 20.941 6.988 34.758 12.474 37.772 28.82-16.527 4.075-28.809 19.033-28.809 36.802 0 17.261 11.605 31.88 27.432 36.452-3.737 5.972-12.666 11.108-27.093 19.056-19.88 10.916-46.916 25.772-73.716 55.259-64.572 6.988-140.411 41.159-198.797 89.712-71.436 59.402-110.789 134.653-110.789 211.892 0 62.066 47.255 126.3 126.322 126.3 32.343 0 59.165-8.286 80.004-24.7-0.056 5.317-0.102 10.713-0.102 16.233 0 28.448 0 67.383 37.897 67.383h471.287c37.897 0 37.897-38.935 37.897-67.383 0-5.509-0.045-10.894-0.102-16.233 20.839 16.403 47.65 24.7 80.004 24.7 79.078 0 126.322-64.222 126.322-126.3 0-77.238-39.342-152.49-110.777-211.903-58.386-48.553-134.224-82.725-198.797-89.712-26.811-29.475-53.837-44.343-73.716-55.259-14.438-7.936-23.368-13.072-27.093-19.056 15.816-4.561 27.432-19.18 27.432-36.452 0-17.769-12.282-32.715-28.809-36.802 3.025-16.335 16.832-21.833 37.772-28.82 20.444-6.818 45.46-15.15 49.423-43.981 34.634-2.055 88.911-17.791 88.911-67.135v-8.455zM285.653 73.543h452.705c-8.421 41.362-78.333 42.006-79.090 42.006h-8.455v8.467c0 22.205-14.585 28.2-38.393 36.136-22.262 7.428-49.976 16.651-49.976 52.233v8.467h8.467c11.56 0 20.975 9.392 20.975 20.963s-9.404 20.986-20.975 20.986h-8.467v8.467c0 20.060 16.719 29.261 37.885 40.877 20.422 11.221 45.833 25.174 71.413 54.107l2.213 2.517 3.33 0.305c121.321 11.447 297.551 128.196 297.551 285.111 0 68.456-55.62 109.366-109.389 109.366-35.695 0-63.398-11.244-82.352-33.404l-15.308-17.904 0.418 23.571c0.203 11.819 0.418 23.707 0.418 36.203 0 35.074-1.987 50.45-20.963 50.45h-471.309c-18.988 0-20.963-15.364-20.963-50.45 0-12.497 0.214-24.384 0.418-36.203l0.418-23.549-15.308 17.882c-18.954 22.16-46.668 33.404-82.352 33.404-53.78 0-109.389-40.899-109.389-109.366 0-156.915 176.23-273.664 297.551-285.111l3.33-0.305 2.213-2.517c25.581-28.922 50.992-42.886 71.413-54.107 21.167-11.616 37.885-20.817 37.885-40.877v-8.467h-8.467c-11.56 0-20.975-9.415-20.975-20.986s9.404-20.963 20.975-20.963h8.467v-8.467c0-35.582-27.714-44.805-49.976-52.233-23.797-7.936-38.393-13.93-38.393-36.136v-8.467h-8.455c-0.756-0.011-70.668-0.643-79.090-42.006zM706.321 415.618l8.004 17.238c20.184 43.485 34.928 99.082 43.835 165.303l1.377 10.25 9.787-3.398c2.517-0.858 4.978-1.253 7.755-1.253 19.033 0 21.020 15.364 21.020 50.427 0 32.568 17.69 67.361 67.349 67.361 49.694 0 67.406-34.792 67.406-67.361 0-116.083-108.012-202.138-208.358-232.991l-18.175-5.577zM773.692 586.96c-8.015-55.496-20.207-103.632-36.328-143.515 89.114 33.178 178.556 109.999 178.556 210.74 0 18.83-6.559 50.427-50.472 50.427-43.868 0-50.416-31.597-50.416-50.427 0-30.006 0-67.361-37.953-67.361-1.151 0-2.269 0.023-3.387 0.135zM317.668 415.618l-18.164 5.577c-100.347 30.83-208.358 116.885-208.358 232.991 0 32.568 17.712 67.361 67.406 67.361 49.66 0 67.349-34.792 67.349-67.361 0-35.052 1.987-50.427 21.020-50.427 2.777 0 5.238 0.395 7.744 1.253l9.787 3.421 1.389-10.273c8.918-66.209 23.661-121.818 43.835-165.303l7.993-17.238zM158.552 704.612c-43.914 0-50.472-31.597-50.472-50.427 0-100.764 89.442-177.574 178.556-210.74-16.12 39.861-28.312 88.019-36.339 143.515-1.118-0.113-2.235-0.135-3.375-0.135-37.953 0-37.953 37.355-37.953 67.361 0 18.83-6.548 50.427-50.416 50.427z" />
<glyph unicode="&#xe94f;" glyph-name="game_multimodal_trip" d="M856.033 742.362c-14.867 46.612-55.169 77.961-100.268 77.961l-30.988-1.129-9.302 23.368c-20.433 51.217-30.107 74.077-33.37 78.954-4.053 6.254-5.238 6.254-35.481 6.254-26.935 0-31.485-0.305-34.804-4.753-4.628-6.051-4.245-10.803 1.434-16.493 4.493-4.493 8.749-4.877 28.549-4.877 16.866 0 20.93-0.937 21.55-1.129 1.377-1.806 6.751-14.551 8.873-20.478-10.115-0.564-42.548-1.14-86.958-1.14h-89.013l-3.014 5.881c-0.993 1.874-1.806 3.556-2.427 4.82 3.127 0.621 8.501 1.366 16.685 2.371 24.429 2.867 29.046 6.807 30.356 10.566 0.632 1.806 0.7 4.482-2.246 7.485-3.375 3.567-9.37 4.188-42.852 4.561-4.877 0.068-9.246 0.124-13.118 0.124-26.303 0-27.68-1.434-28.99-2.8-2.563-2.574-2.743-9.008-2.495-12.384 0.44-5.419 1.005-12.926 9.189-12.926 0.553 0 1.174 0.056 1.874 0.124l7.123 0.993 10.25-19.428-35.797-54.909c-30.107 8.625-53.408 8.692-79.902 0.135-13.987-5.881-33.483-19.744-42.48-30.311-11.74-13.682-21.11-34.724-23.865-53.667-0.305-2.055-0.564-4.245-0.689-6.615v-14.247c3.059-41.554 32.365-79.586 71.221-92.512 13.434-4.448 17.43-5.825 27.364-5.825 2.867 0 6.31 0.135 10.747 0.26 14.314 0.497 21.55 1.93 33.979 6.807 18.502 7.18 27.116 14.563 45.55 34.544 17.046 18.683 20.613 39.488 21.799 49.231 4.685 0.305 16.301 0.7 30.988 0.7h27.929l0.248-12.497c0.124-5.622-0.124-12.44-0.248-16.866-0.068-1.072-0.068-2.009-0.068-2.811-1.129 0.056-2.619 0.056-4.437-0.068-4.865-0.305-7.993-0.689-9.81-2.935-1.377-1.75-1.31-3.816-1.005-5.69 0.881-6.435 5.814-7.372 11.187-7.801 4.561-0.373 15.183 1.366 17.927 1.998l2.495 0.632 0.497 48.723 12.497 15.556c7.552 9.562 14.427 18.164 15.172 19.236 0.813 1.061 4.685 5.938 8.501 10.815 3.816 4.809 21.731 27.545 39.861 50.405 15.308 19.304 27.116 33.742 31.665 38.992 0.192-0.316 0.44-0.756 0.621-1.185 6.818-14.427 10.566-23.989 11.379-29.374 0.497-2.675 0.373-3.432 0.305-3.612-0.056-0.135-0.497-0.44-2.371-1.185-9.054-3.432-30.74-27.048-36.926-38.845-8.117-15.691-13.366-35.232-13.366-49.863 0-22.036 14.359-57.212 29.543-72.395 21.37-21.381 48.542-33.065 76.595-33.065 23.797 0 46.792 8.309 66.661 24.181 16.493 14.63 28.798 32.862 34.668 51.421 4.425 14.732 4.933 44.478 1.005 56.715zM753.508 702.253c2.438 0 4.809 1.061 7.315 3.319l0.44 0.564c6.931 9.742 0.813 23.052-5.249 36.102-3.183 5.87-16.798 42.785-19.236 51.037 2.619 1.242 8.489 1.061 13.547 0.621 1.682-0.192 3.319-0.305 4.696-0.305 18.299-0.813 22.803-1.682 32.297-6.062 13.739-6.423 32.105-24.858 38.551-38.676 0.621-1.366 1.242-2.619 1.818-3.804 3.5-7.067 5.994-12.124 6.243-30.852 2.563-21.618-11.3-40.177-25.118-55.349-14.992-14.427-35.357-22.747-55.846-22.747-6.57 0-13.061 0.869-19.18 2.563-38.664 10.691-64.346 48.361-58.465 85.84 3.308 21.121 8.862 32.738 21.979 46.115 3.567 3.68 10.995 11.244 13.75 11.244 1.185 0 3.003-3.127 5.306-9.246 1.377-3.624 4.437-11.244 6.875-16.866 2.314-5.373 7.688-18.243 11.932-28.674 6.299-15.759 11.289-24.824 18.344-24.824v0zM422.982 729.798l28.109 44.602c11.684-10.679 22.239-21.742 25.174-43.846l-53.283-0.756zM408.611 756.101c-22.555-34.047-28.177-43.925-24.677-48.847 3.748-5.125 9.494-5.69 20.681-5.69 3.127 0 6.818 0.056 11.12 0.124 6.243 0.068 13.874 0.203 23.187 0.203h38.484c-7.067-60.599-76.967-61.298-79.959-61.298-0.813 0-1.501 0.068-2.179 0.068-36.926 1.242-74.032 28.866-73.648 79.462 0.248 39.545 34.736 70.533 78.401 70.533 9.37 0 18.807-1.445 28.053-4.256-5.407-8.997-12.531-19.801-19.462-30.299zM488.006 838.814c1.874-2.608 4.741-7.123 8.184-13.31 5.238-9.426 19.993-35.594 32.726-58.149 10.058-17.678 17.001-30.751 20.060-36.982l-45.302 0.508c-6.615 29.046-24.294 51.658-39.669 68.399l24 39.534zM592.71 764.285c1.434 1.569 2.122 3.556 1.998 5.757-0.305 7.925-11.052 7.925-15.048 7.925-2.935 0-6.119-0.192-9.054-0.305l-6.875-0.373 0.689-25.671-51.601 101.137h74.145c37.863 0 66.153-0.124 74.969-1.185-5.306-7.993-23.052-31.349-41.791-54.401-0.564-0.632-1.558-1.942-2.935-3.748-2.506-3.319-6.254-8.184-10.115-12.869l-27.308-33.302-0.056 12.937c4.482 0.158 9.991 0.79 12.982 4.098zM552.171 382.214h-21.934c0 18.175 0 33.618 0 43.789 0 56.41-10.928 87.466-65.656 87.466h-306.357c-65.588 0-87.511-18.739-87.511-76.595 0-11.74 0-31.417 0-54.661h-21.866c-6.062 0-10.928-4.877-10.928-10.939v-87.579c0-5.994 4.877-10.939 10.928-10.939h21.866c0-32.049 0-59.966 0-74.845 0-63.161 0-122.123 0-122.123 0-16.301 6.051-26.8 15.996-33.415l-5.001 0.632v-32.794c0-12.045 9.742-21.866 21.866-21.866h43.733c12.113 0 21.866 9.81 21.866 21.866v21.923h262.624v-21.923c0-12.045 9.81-21.866 21.878-21.866h43.789c12.056 0 21.866 9.81 21.866 21.866v32.794l-5.001-0.621c9.878 6.615 15.929 17.114 15.929 33.415 0 0 0 48.474 0 122.123 0 15.488 0 43.496 0 74.845h21.923c5.994 0 10.871 4.945 10.871 10.939v87.579c-0.023 6.062-4.888 10.928-10.882 10.928zM180.159 469.737c0 6.062 4.877 10.995 10.928 10.995h229.773c6.062 0 10.928-4.933 10.928-10.995v-21.866c0-6.062-4.865-11.007-10.928-11.007h-229.773c-6.062 0-10.928 4.945-10.928 11.007v21.866zM152.795 75.801c-21.167 0-38.292 17.238-38.292 38.348 0 21.189 17.114 38.303 38.292 38.303 21.121 0 38.303-17.114 38.303-38.303-0.011-21.11-17.193-38.348-38.303-38.348zM448.224 75.801c-21.178 0-38.303 17.238-38.303 38.348 0 21.189 17.114 38.303 38.303 38.303 21.11 0 38.235-17.114 38.235-38.303-0.011-21.11-17.125-38.348-38.235-38.348zM486.448 239.975c0-21.866-21.302-31.981-32.794-31.981l-306.357-0.813c-21.866 0-32.794 10.939-32.794 32.794 0 32.794 0 96.892 0 131.312 0 21.878 10.928 32.794 32.794 32.794 98.45 0 171.918 0 306.357 0 21.923 0 32.794-10.928 32.794-32.794s0-120.125 0-131.312zM670.919 4.907l36.745-36.677 76.459 235.643 73.524-88.719 30.548-128.569 41.295 10.758-25.987 136.11-85.897 110.202 18.548 152.998 39.804-73.468 94.883-33.618 15.251 30.615-85.648 36.734-45.923 104.015-85.648 15.364-122.439-79.643 6.13-125.509 33.663 6.119-3.116 82.713 55.090 33.675-12.169-146.992zM877.584 535.077c0-23.684-19.191-42.92-42.852-42.92-23.673 0-42.92 19.236-42.92 42.92 0 23.616 19.247 42.852 42.92 42.852 23.661 0 42.852-19.236 42.852-42.852z" />
<glyph unicode="&#xe950;" glyph-name="score" d="M890.456 860.84c-93.256-92.022-110.368-201.904-126.948-308.176-13.618-87.542-26.502-170.21-79.936-238.326-58.296-74.31-159.738-113.614-293.278-113.614-19.042 0-38.722 0.798-58.628 2.414-10.886-26.7-37.856-98.164-50.306-180.232-3.212-21.456-21.006-34.906-46.458-34.906-20.426 0-41.086 8.456-52.736 21.574-7.642 8.524-11.17 18.992-10.006 29.366 23.54 202.252 153.864 382.036 259.036 497.328 51.040 55.866 100.66 101.958 140.13 136.068-110.318-50.19-286.404-160.422-380.288-377.51l-16.746-38.716-15.184 39.368c-60.476 156.626-38.020 292.56 66.684 404.060 142.634 151.814 435.806 208.462 587.060 208.462 65.37 0 78.77-10.706 83.53-22.308 3.494-8.438 1.232-17.726-5.926-24.852z" />
<glyph unicode="&#xe951;" glyph-name="game_friend" d="M607.95 447.994c105.585 0 191.91 86.348 191.91 191.91 0 105.573-86.326 191.91-191.91 191.91-105.506 0-191.843-86.337-191.843-191.91 0-105.562 86.337-191.91 191.843-191.91zM607.95 352.039c-127.124 0-383.753-64.787-383.753-191.888v-95.955h767.574v95.955c0 127.090-256.618 191.888-383.821 191.888zM224.196 511.98v127.925h-63.974v-127.914h-128.004v-63.996h128.004v-127.914h63.974v127.914h127.88v63.996h-127.88z" />
<glyph unicode="&#xe952;" glyph-name="blacklist_off" d="M418.19 538.642c21.898-21.896 47.404-39.090 75.81-51.102 29.426-12.448 60.672-18.76 92.866-18.76 32.192 0 63.434 6.312 92.856 18.758 28.41 12.014 53.918 29.208 75.814 51.104 21.898 21.896 39.094 47.398 51.11 75.798 12.45 29.422 18.762 60.656 18.762 92.836 0 32.202-6.312 63.454-18.758 92.888-12.018 28.416-29.212 53.932-51.108 75.83-21.894 21.902-47.404 39.104-75.814 51.122-29.428 12.454-60.672 18.766-92.862 18.766-32.194 0-63.44-6.312-92.866-18.764-28.412-12.020-53.92-29.22-75.812-51.122-21.898-21.902-39.092-47.416-51.108-75.834-12.446-29.434-18.756-60.686-18.756-92.886 0-32.18 6.312-63.414 18.758-92.834 12.018-28.4 29.212-53.904 51.108-75.8zM424.186 776.018c8.89 21.028 21.624 39.916 37.85 56.144 16.218 16.226 35.102 28.96 56.122 37.856 21.744 9.2 44.862 13.864 68.708 13.864s46.958-4.664 68.704-13.866c21.022-8.892 39.904-21.628 56.124-37.856 16.224-16.226 28.958-35.118 37.85-56.144 9.2-21.752 13.864-44.88 13.864-68.74 0-23.834-4.664-46.94-13.86-68.676-8.89-21.014-21.624-39.892-37.852-56.116-16.222-16.222-35.106-28.956-56.126-37.844-21.74-9.198-44.856-13.862-68.704-13.862-23.85 0-46.966 4.664-68.712 13.864-21.018 8.886-39.9 21.62-56.124 37.84-16.224 16.224-28.958 35.104-37.846 56.118-9.196 21.734-13.86 44.84-13.86 68.676 0.002 23.862 4.666 46.988 13.862 68.742zM646.122 12.116h-495.128v136.942c0 1.314 0.212 2.666 0.652 4.126 0.468 1.564 1.188 3.214 2.136 4.904 0.912 1.622 2.020 3.254 3.292 4.846 1.276 1.602 2.452 2.826 3.348 3.704 24.23 24.016 51.588 45.796 81.314 64.74 30.416 19.382 63.68 36.028 98.868 49.468 36.268 13.856 75.082 24.502 115.362 31.642 41.74 7.396 85.72 11.146 130.72 11.146 45.022 0 89.024-3.744 130.786-11.128 16.856-2.974 32.942 8.27 35.924 25.128s-8.27 32.944-25.128 35.926c-45.314 8.012-92.952 12.074-141.58 12.074-48.618 0-96.238-4.070-141.542-12.1-44.13-7.822-86.748-19.522-126.668-34.772-39.090-14.934-76.12-33.472-110.060-55.102-33.446-21.312-64.276-45.872-91.504-72.858-2.91-2.852-5.706-5.948-8.306-9.208-3.344-4.194-6.326-8.608-8.862-13.118-3.188-5.67-5.708-11.552-7.486-17.49-2.166-7.22-3.264-14.6-3.264-21.932v-167.942c0-17.122 13.878-31 31-31h526.128c17.122 0 31 13.878 31 31s-13.88 31.004-31.002 31.004zM932.954 285.296l-38.29 38.292c-1.312 1.312-3.094 2.050-4.95 2.050-1.858 0-3.636-0.738-4.95-2.050l-200.3-200.292-92.058 92.056c-2.624 2.624-7.274 2.624-9.898 0l-38.292-38.292c-2.732-2.732-2.732-7.166 0-9.898l135.298-135.298c1.368-1.368 3.158-2.050 4.952-2.050 1.79 0 3.582 0.684 4.95 2.050l243.54 243.536c2.732 2.73 2.732 7.164-0.002 9.896z" />
<glyph unicode="&#xe953;" glyph-name="blacklist_on" d="M377.25 538.638c21.898-21.894 47.404-39.090 75.81-51.102 29.426-12.446 60.67-18.758 92.866-18.758 32.192 0 63.434 6.312 92.856 18.758 28.41 12.012 53.918 29.208 75.814 51.102 21.898 21.898 39.094 47.398 51.11 75.8 12.45 29.422 18.762 60.658 18.762 92.84 0 32.2-6.312 63.454-18.76 92.886-12.016 28.418-29.21 53.934-51.106 75.832-21.894 21.902-47.404 39.102-75.814 51.122-29.428 12.454-60.672 18.766-92.862 18.766-32.194 0-63.44-6.312-92.866-18.766-28.412-12.020-53.92-29.218-75.814-51.122-21.896-21.902-39.090-47.414-51.106-75.832-12.446-29.434-18.756-60.688-18.756-92.886 0-32.182 6.31-63.418 18.758-92.84 12.016-28.396 29.21-53.9 51.108-75.8zM383.246 776.022c8.89 21.028 21.624 39.914 37.848 56.144 16.22 16.226 35.102 28.96 56.124 37.856 21.744 9.2 44.862 13.864 68.708 13.864 23.844 0 46.958-4.664 68.704-13.868 21.022-8.89 39.904-21.628 56.124-37.856 16.222-16.226 28.958-35.118 37.85-56.144 9.2-21.75 13.864-44.878 13.864-68.738 0-23.838-4.664-46.944-13.862-68.68-8.89-21.016-21.624-39.894-37.85-56.118-16.222-16.222-35.106-28.954-56.126-37.844-21.742-9.196-44.856-13.86-68.704-13.86-23.852 0-46.968 4.664-68.712 13.864-21.018 8.886-39.9 21.618-56.124 37.84s-28.958 35.102-37.848 56.118c-9.196 21.736-13.858 44.842-13.858 68.68 0 23.858 4.664 46.988 13.862 68.742zM605.182 12.114h-495.128v136.942c0 1.312 0.212 2.664 0.65 4.124 0.468 1.566 1.19 3.214 2.138 4.906 0.912 1.622 2.020 3.254 3.292 4.844 1.278 1.602 2.452 2.828 3.348 3.704 24.23 24.016 51.588 45.796 81.314 64.742 30.416 19.382 63.68 36.028 98.866 49.468 36.27 13.856 75.084 24.5 115.364 31.64 41.738 7.398 85.718 11.148 130.72 11.148 45.022 0 89.024-3.746 130.786-11.128 16.86-2.972 32.944 8.27 35.924 25.128s-8.27 32.942-25.128 35.926c-45.316 8.012-92.952 12.074-141.58 12.074-48.62 0-96.24-4.070-141.542-12.102-44.13-7.82-86.748-19.52-126.668-34.77-39.090-14.934-76.122-33.472-110.060-55.102-33.446-21.312-64.276-45.872-91.506-72.86-2.91-2.852-5.704-5.946-8.306-9.208-3.342-4.196-6.324-8.61-8.862-13.118-3.188-5.672-5.706-11.554-7.486-17.492-2.164-7.218-3.262-14.598-3.262-21.93v-167.942c0-17.122 13.878-31 31-31h526.128c17.122 0 31 13.878 31 31s-13.882 31.006-31.002 31.006zM795.768 326.114c-99.348 0-180.174-80.828-180.174-180.176s80.826-180.176 180.174-180.176c99.35 0 180.176 80.828 180.176 180.176s-80.828 180.176-180.176 180.176zM874.070 35.86c-22.96-16.414-49.912-25.062-78.302-25.062-74.516 0-135.138 60.624-135.138 135.14 0 28.39 8.646 55.34 25.064 78.304l188.376-188.382zM717.466 256.012c22.96 16.418 49.91 25.066 78.3 25.066 74.518 0 135.14-60.624 135.14-135.14 0-28.39-8.644-55.34-25.062-78.3l-188.378 188.374z" />
<glyph unicode="&#xe954;" glyph-name="ch_coop_invitation" d="M761.566 558.15c-1.132-3.608-3.714-5.708-7.016-7.376-7.734-3.89-15.332-8.052-23.004-12.080-6.266-3.286-11.48-1.664-14.79 4.674-5.282 10.108-10.488 20.256-15.722 30.392-15.91 30.778-31.828 61.554-47.71 92.334-0.746 1.438-1.446 2.952-1.824 4.514-1.090 4.512 0.86 8.52 5.046 10.732 8.192 4.318 16.394 8.628 24.594 12.936 6.414 3.372 11.542 1.802 14.946-4.696 5.68-10.868 11.282-21.772 16.914-32.668 15.36-29.706 30.714-59.416 46.070-89.13 0.852-1.652 1.664-3.326 2.496-4.99 0-1.548 0-3.096 0-4.642zM498.712 373.638c-8.14 1.542-13.396 6.334-15.366 14.334-1.91 7.766-0.162 14.81 5.41 20.702 5.008 5.3 10.136 10.486 15.158 15.776 4.976 5.246 10.922 7.584 17.9 5.174 7.28-2.518 10.952-8.27 11.944-15.698 0.968-7.24-1.21-13.532-6.37-18.774-4.030-4.098-8.090-8.174-11.946-12.43-3.922-4.338-8.152-8.044-14.152-9.080-0.858-0.004-1.716-0.004-2.578-0.004zM654.238 480.968c-9.532 10.606-18.598 20.804-27.778 30.904-30.82 33.944-61.684 67.856-92.542 101.772-1.504 1.65-3.122 3.2-4.726 4.746-3.958 3.798-7.26 4.342-12.122 1.742-9.91-5.288-19.714-10.776-29.666-15.992-15.41-8.088-30.824-16.182-46.428-23.892-4.282-2.118-9.178-3.516-13.93-4.090-8.842-1.078-15.618 4.472-16.846 13.294-1.172 8.378 1.158 15.72 7.88 21.178 29.78 24.178 61.254 45.888 94.86 64.434 8.22 4.534 16.772 8.256 26.236 9.362 10.852 1.268 21.152-0.88 30.554-6.138 10.536-5.896 20.644-12.566 30.984-18.812 3.004-1.81 6.11-3.504 9.304-4.938 6.816-3.068 13.684-2.846 20.418 0.326 3.406 1.602 6.718 3.398 10.242 5.2 0.406-0.702 0.844-1.398 1.226-2.124 20.468-39.234 40.922-78.476 61.45-117.68 0.964-1.834 0.922-3.196-0.040-4.936-7.8-14.148-18.352-26.088-29.922-37.17-6.138-5.874-12.638-11.362-19.154-17.186zM350.744 678.872c-0.232-0.896-0.522-2.684-1.15-4.352-16.258-43.244-32.528-86.488-48.918-129.678-0.87-2.29-2.582-4.452-4.388-6.162-2.198-2.074-5.078-2.188-7.982-1.16-8.166 2.87-16.354 5.682-24.53 8.532-6.59 2.298-8.8 6.84-6.434 13.498 1.87 5.248 3.884 10.442 5.85 15.656 14.41 38.258 28.796 76.53 43.302 114.754 0.846 2.236 2.398 4.366 4.1 6.068 2.132 2.13 4.996 2.518 7.922 1.506 8.828-3.058 17.658-6.102 26.466-9.214 3.756-1.326 5.74-4.378 5.762-9.448zM497.616 680.504c-3.932-2.348-7.14-4.298-10.394-6.162-0.426-0.244-1.232-0.234-1.658 0.012-9.2 5.262-18.496 3.702-27.488-0.158-6.91-2.966-13.506-6.69-20.148-10.262-8.47-4.554-16.964-8.92-26.48-11.048-14.166-3.162-28.354 2.352-37.796 12.664-3.764-10.172-7.438-20.298-11.25-30.372-11.434-30.226-22.904-60.438-34.438-90.62-0.636-1.674-0.532-2.778 0.67-4.082 11.104-12.064 22.16-24.172 33.224-36.272 0.624-0.678 1.256-1.356 1.23-1.598-2.55-2.756-5.1-5.506-7.862-8.488-0.384 0.362-1.012 0.896-1.564 1.5-11.466 12.544-22.938 25.092-34.392 37.648-3.936 4.312-4.558 9.158-2.516 14.57 15.366 40.65 30.696 81.314 46.020 121.98 1.768 4.684 4.746 7.966 9.964 8.512 5.198 0.542 8.532-2.102 11.53-6.194 2.952-4.024 7.65-6 12.424-7.216 7.582-1.934 14.936-0.392 21.788 2.844 7.972 3.76 15.686 8.086 23.478 12.232 8.136 4.336 16.486 8.1 25.736 9.308 9.838 1.286 18.97-0.468 26.984-6.654 0.874-0.658 1.772-1.284 2.938-2.144zM543.636 398.546c12.066-3.602 21.968 3.238 23.16 15.918 0.61 6.498-1.086 12.18-5.426 17.126-10.926 12.46-21.796 24.968-32.672 37.476-2.996 3.452-2.918 7.68 0.092 10.61 2.346 2.282 4.694 2.184 6.866-0.244 14.664-16.378 29.304-32.774 44.020-49.104 7.624-8.46 17.778-9.206 24.82-1.912 4.36 4.516 6.128 10.032 5.792 16.236-0.316 5.916-2.876 10.81-6.84 15.148-12.040 13.19-24 26.464-35.984 39.704-3.188 3.526-3.028 7.378 0.422 10.616 2.688 2.53 5.304 2.48 7.758-0.29 9.622-10.87 19.208-21.77 28.808-32.642 6.032-6.82 11.894-13.784 18.156-20.394 7.376-7.786 18.742-7.648 25.792 0.062 1.238 1.358 2.426 3.036 2.902 4.762 0.738 2.674 2.234 4.454 4.434 5.958 2.464 1.688 4.786 3.604 7.618 5.77 2.262-8.91-0.050-16.452-5.128-23.186-8.21-10.9-19.52-13.328-36.122-8.188-1.274-22.94-22.386-38.33-43.356-26.624-0.41-2.292-0.64-4.564-1.234-6.732-3.098-11.226-9.434-19.582-21.106-22.838-6.59-1.836-12.864-0.59-18.812 2.624 2.044 3.428 3.994 6.706 6.040 10.144zM509.196 453.426c-0.046-7.326-2.272-12.826-7.034-17.178-12.098-11.056-24.248-22.056-36.35-33.108-5.098-4.66-10.912-6.576-17.526-4.042-6.782 2.594-10.346 8.008-11.408 15.004-1.19 7.856 1.206 14.53 7.144 19.922 11.762 10.658 23.54 21.298 35.196 32.076 5.648 5.224 11.872 7.728 19.216 4.348 7.508-3.464 10.434-9.988 10.762-17.022zM466.826 477.326c-0.146-7.24-2.51-12.72-7.374-17.132-9.224-8.356-18.394-16.782-27.604-25.154-6.458-5.866-13.008-7.186-19.518-3.988-6.618 3.246-10.87 11.198-10.282 19.056 0.458 6.21 2.942 11.34 7.6 15.52 9.006 8.086 18.014 16.18 26.86 24.44 5.672 5.3 11.898 8.042 19.4 4.66 7.644-3.47 10.532-10.116 10.918-17.402zM403.010 480.62c-0.146-7.69-2.784-13.248-7.98-17.552-2.312-1.914-4.696-3.752-7.116-5.536-7.39-5.43-17.042-4.070-22.712 3.142-6.962 8.864-5.446 22.582 3.304 29.678 1.87 1.514 3.844 2.892 5.666 4.46 10.674 9.17 24.33 3.164 28.072-9.534 0.526-1.782 0.616-3.702 0.766-4.658zM973.524 555.674c0-188.932 0-377.868 0-567.674-307.68 0-615.364 0-923.048 0 0.76 9.104 2.178 18.2 2.186 27.306 0.132 169.044 0.486 338.084-0.422 507.124-0.11 20.106 6.24 32.392 22.044 43.834 31.082 22.516 60.352 47.518 91.198 70.384 12.42 9.206 17.238 19.362 16.832 34.778-1.006 38.172-0.334 76.388-0.334 117.348 53.174 0 103.674 0.812 154.128-0.41 19.764-0.478 34.994 5.354 50.162 17.566 42.944 34.586 86.898 67.916 130.89 102.070 45.796-35.47 89.48-70.584 134.754-103.518 11.942-8.69 28.624-14.46 43.382-15.012 48.954-1.844 98.024-0.694 149.054-0.694 0-40.714-0.356-78.956 0.29-117.184 0.132-7.692 1.558-18.466 6.622-22.486 40.18-31.872 81.378-62.45 122.262-93.432zM99.984 35.816c278.188 0 554.508 0 830.868 0 0 153.528 0 305.396 0 459.98-9.234-4.836-16.554-8.534-23.75-12.464-124.742-68.060-249.582-135.946-374.042-204.534-12.982-7.148-22.548-7.056-35.514 0.1-124.418 68.654-249.238 136.59-373.956 204.706-7 3.824-14.13 7.418-23.604 12.382-0.002-155.364-0.002-306.702-0.002-460.17zM230.942 741.334c-1.202-4.202-2.344-6.346-2.352-8.492-0.186-80.67-0.688-161.354 0.362-242.010 0.094-7.324 8.758-17.298 16.050-21.352 84.532-46.938 169.38-93.33 254.766-138.694 8.244-4.378 22.702-4.806 30.798-0.516 84.752 44.92 168.658 91.434 253.198 136.748 11.226 6.014 14.7 12.734 14.66 24.99-0.184 54.52 0.738 109.044 1.098 163.574 0.184 28.204 0.036 56.406 0.036 85.75-191.316 0.002-379.262 0.002-568.616 0.002zM440.52 790.522c53.456 0 100.36 0 153.542 0-26.176 20.424-47.378 37.534-69.384 53.536-3.452 2.512-12.098 2.106-15.712-0.542-21.542-15.752-42.32-32.558-68.446-52.994zM845.312 595.746c0-34.12 0-62.884 0-95.176 24.562 13.43 46.856 25.622 72.066 39.418-24.652 19.072-46.674 36.108-72.066 55.758zM179.786 504.446c0 30.134 0 56.13 0 86.090-23.416-18.17-43.49-33.748-65.278-50.654 23.118-12.55 43.076-23.386 65.278-35.436z" />
<glyph unicode="&#xe955;" glyph-name="ch_coop" d="M987.188 487.292c-2.15-6.856-7.052-10.848-13.332-14.010-14.702-7.398-29.142-15.304-43.72-22.96-11.91-6.244-21.816-3.166-28.1 8.89-10.040 19.204-19.938 38.494-29.886 57.748-30.236 58.492-60.48 116.976-90.67 175.484-1.412 2.73-2.748 5.608-3.462 8.57-2.076 8.578 1.628 16.192 9.588 20.392 15.57 8.21 31.15 16.402 46.736 24.586 12.192 6.408 21.946 3.424 28.404-8.926 10.792-20.658 21.442-41.382 32.144-62.084 29.19-56.46 58.374-112.924 87.554-169.392 1.624-3.138 3.17-6.322 4.746-9.482-0.002-2.94-0.002-5.884-0.002-8.816zM487.646 136.626c-15.472 2.93-25.46 12.040-29.206 27.244-3.628 14.75-0.298 28.14 10.284 39.33 9.518 10.082 19.26 19.934 28.804 29.988 9.458 9.97 20.76 14.408 34.022 9.83 13.836-4.78 20.812-15.708 22.7-29.822 1.838-13.768-2.3-25.714-12.11-35.684-7.652-7.79-15.374-15.536-22.698-23.63-7.458-8.236-15.494-15.292-26.898-17.262-1.63 0.006-3.268 0.006-4.898 0.006zM783.212 340.618c-18.112 20.152-35.352 39.53-52.792 58.72-58.582 64.518-117.226 128.966-175.876 193.422-2.852 3.136-5.928 6.078-8.978 9.016-7.522 7.22-13.796 8.25-23.034 3.314-18.836-10.052-37.474-20.478-56.382-30.394-29.29-15.372-58.584-30.758-88.236-45.408-8.144-4.022-17.442-6.682-26.468-7.776-16.812-2.044-29.68 8.5-32.020 25.262-2.224 15.924 2.202 29.878 14.978 40.254 56.594 45.95 116.41 87.2 180.276 122.446 15.624 8.622 31.874 15.692 49.86 17.788 20.624 2.414 40.204-1.67 58.070-11.664 20.022-11.208 39.224-23.886 58.878-35.752 5.708-3.442 11.608-6.66 17.678-9.386 12.954-5.824 26.010-5.41 38.812 0.618 6.476 3.046 12.768 6.468 19.464 9.884 0.77-1.334 1.606-2.656 2.32-4.044 38.904-74.562 77.772-149.138 116.788-223.644 1.828-3.492 1.746-6.064-0.080-9.384-14.83-26.886-34.878-49.586-56.872-70.64-11.652-11.144-24.006-21.572-36.386-32.632zM206.442 716.718c-0.446-1.696-0.994-5.102-2.184-8.27-30.9-82.18-61.814-164.36-92.962-246.444-1.652-4.354-4.91-8.458-8.344-11.71-4.174-3.94-9.648-4.154-15.168-2.202-15.52 5.454-31.076 10.796-46.616 16.214-12.522 4.366-16.724 12.998-12.228 25.654 3.55 9.97 7.378 19.842 11.11 29.752 27.386 72.714 54.726 145.442 82.294 218.084 1.61 4.248 4.558 8.294 7.796 11.526 4.050 4.052 9.494 4.79 15.050 2.864 16.778-5.81 33.558-11.594 50.298-17.512 7.138-2.522 10.902-8.322 10.954-17.956zM485.562 719.816c-7.47-4.46-13.568-8.168-19.756-11.708-0.808-0.462-2.338-0.448-3.152 0.020-17.484 10.002-35.144 7.038-52.242-0.296-13.126-5.64-25.67-12.72-38.288-19.494-16.098-8.656-32.232-16.96-50.316-20.998-26.922-6.014-53.89 4.462-71.836 24.062-7.152-19.33-14.134-38.574-21.376-57.718-21.736-57.438-43.532-114.852-65.448-172.216-1.208-3.176-1.016-5.282 1.27-7.754 21.106-22.932 42.108-45.948 63.142-68.936 1.192-1.292 2.392-2.58 2.342-3.040-4.848-5.238-9.694-10.458-14.944-16.128-0.726 0.69-1.92 1.704-2.97 2.848-21.796 23.838-43.592 47.686-65.362 71.548-7.476 8.198-8.662 17.41-4.778 27.692 29.206 77.256 58.332 154.534 87.458 231.818 3.36 8.898 9.026 15.138 18.936 16.174 9.88 1.038 16.212-3.99 21.908-11.764 5.612-7.648 14.542-11.406 23.618-13.716 14.412-3.674 28.382-0.742 41.404 5.408 15.154 7.148 29.814 15.364 44.62 23.248 15.47 8.236 31.336 15.39 48.918 17.694 18.696 2.44 36.046-0.89 51.284-12.646 1.646-1.268 3.348-2.466 5.568-4.098zM573.022 183.97c22.932-6.846 41.748 6.158 44.014 30.252 1.16 12.35-2.060 23.142-10.306 32.548-20.768 23.678-41.424 47.458-62.092 71.222-5.698 6.554-5.546 14.588 0.174 20.164 4.458 4.34 8.918 4.146 13.048-0.458 27.87-31.13 55.688-62.286 83.652-93.332 14.484-16.076 33.788-17.488 47.166-3.63 8.292 8.586 11.656 19.066 11.020 30.856-0.606 11.248-5.464 20.54-13.004 28.792-22.886 25.060-45.606 50.29-68.38 75.456-6.056 6.696-5.76 14.016 0.796 20.172 5.112 4.812 10.078 4.71 14.744-0.556 18.28-20.652 36.496-41.368 54.752-62.030 11.452-12.958 22.606-26.202 34.498-38.756 14.016-14.796 35.626-14.538 49.022 0.118 2.364 2.58 4.608 5.766 5.512 9.052 1.404 5.078 4.244 8.466 8.426 11.328 4.688 3.21 9.094 6.85 14.48 10.96 4.292-16.924-0.098-31.262-9.746-44.058-15.61-20.71-37.094-25.328-68.652-15.56-2.422-43.598-42.542-72.846-82.388-50.602-0.778-4.348-1.218-8.666-2.352-12.79-5.882-21.332-17.922-37.216-40.108-43.4-12.53-3.494-24.45-1.122-35.748 4.986 3.874 6.502 7.576 12.728 11.472 19.266zM507.568 288.262c-0.098-13.918-4.312-24.37-13.368-32.638-22.99-21.010-46.084-41.916-69.084-62.922-9.694-8.848-20.742-12.492-33.302-7.68-12.886 4.922-19.668 15.214-21.684 28.518-2.266 14.922 2.292 27.606 13.576 37.85 22.352 20.258 44.736 40.486 66.888 60.968 10.732 9.926 22.566 14.688 36.524 8.258 14.264-6.58 19.824-18.984 20.45-32.354zM427.050 333.686c-0.288-13.756-4.776-24.172-14.020-32.552-17.528-15.88-34.956-31.892-52.464-47.81-12.274-11.148-24.722-13.66-37.086-7.58-12.578 6.166-20.656 21.28-19.546 36.214 0.876 11.804 5.602 21.55 14.45 29.49 17.12 15.372 34.232 30.75 51.046 46.452 10.778 10.066 22.61 15.288 36.864 8.852 14.538-6.59 20.018-19.222 20.756-33.066zM305.762 339.948c-0.276-14.616-5.292-25.182-15.164-33.36-4.394-3.638-8.922-7.134-13.524-10.518-14.042-10.322-32.386-7.738-43.16 5.97-13.23 16.854-10.348 42.92 6.276 56.396 3.546 2.88 7.308 5.494 10.77 8.472 20.286 17.436 46.236 6.018 53.346-18.108 1.002-3.392 1.172-7.038 1.456-8.852z" />
</font>
</defs>
</svg>
